<?xml version="1.0" standalone="no"?><!DOCTYPE svg PUBLIC "-//W3C//DTD SVG 1.1//EN" "http://www.w3.org/Graphics/SVG/1.1/DTD/svg11.dtd">
<svg class="icon" width="48px" height="48.00px" viewBox="0 0 1024 1024" version="1.1" xmlns="http://www.w3.org/2000/svg">
    <path d="M328.032 322.944c0 50.368-49.024 208 152.576 229.184 88.096 19.68 110.624 63.552 102.976 194.88-0.064 10.56-0.544 21.152-1.44 31.712-30.848 16.224-52.608 25.984-65.28 29.312 2.016-18.176 22.624-161.664-19.584-195.104-42.176-33.376-71.488-37.472-115.008-43.2-21.024-2.816-53.92-20.448-78.848-35.776-24.896-15.232-39.424-44.8-43.84-72.448-2.976-18.496-3.84-45.184-2.624-80.096 16-17.888 39.744-37.44 71.072-58.4v-0.064zM412.48 274.56c-1.376 18.24-29.824 176.384 51.776 213.92 29.792 13.76 42.304 19.072 63.36 24.032 21.024 4.96 74.304 12.032 96.32 34.336 8.96 8.928 22.432 24.128 29.952 43.36 10.976 28.32 13.888 68.544 13.888 110.208v31.456c-23.776 17.824-43.872 30.208-60.448 37.376 0-21.344 7.648-121.408-12.448-162.56-20.064-41.152-41.6-60.48-77.344-65.28-35.776-4.768-93.376-19.52-116.384-38.912-23.072-19.296-53.216-48.384-53.216-97.312 0-32.608 0.768-63.936 2.304-94.08 23.136-16.896 43.84-29.056 62.24-36.544z m85.76-38.272c-2.272 36.128-7.68 122.304 9.6 167.04 17.28 44.768 53.76 69.76 93.952 76.64 40.16 6.848 111.552 30.528 129.312 73.28 16.224 38.944 17.92 62.176 18.144 81.28v34.176c-22.08 20.096-41.536 35.776-58.56 47.072 0-58.816-0.16-114.816-17.28-147.776-17.024-32.896-39.488-52.64-88.416-64-48.864-11.456-100-16.32-130.88-56.256-20.608-26.592-28.064-70.528-22.464-131.776l5.088-51.904a454.144 454.144 0 0 1 61.472-27.776z"
          fill="#E8130D"/>
    <path d="M223.808 408.992c2.4 37.6 5.44 62.88 9.184 75.808 10.624 36.48 40.896 63.84 54.4 72 21.952 13.28 64.864 31.36 97.696 35.744 21.856 2.88 45.44 9.92 70.912 21.024 23.84 15.744 36.128 31.008 36.96 45.888 5.056 95.776-9.664 128.128-16.032 161.824-72.96 44.576-374.432 49.152-380.64-123.136-4.16-114.88 38.304-211.264 127.52-289.152z m671.808-139.968c66.4 96.512 30.72 219.712-107.008 369.6a197.216 197.216 0 0 0-3.52-33.6c-17.12-76.16-47.68-109.088-85.184-122.88-37.536-13.92-146.464-15.232-167.616-91.968a435.2 435.2 0 0 1 6.912-171.84c169.536-47.584 288.384-30.688 356.416 50.688z"
          fill="#1D2683"/>
</svg>