<?xml version="1.0" standalone="no"?><!DOCTYPE svg PUBLIC "-//W3C//DTD SVG 1.1//EN" "http://www.w3.org/Graphics/SVG/1.1/DTD/svg11.dtd"><svg class="icon" width="48px" height="48.00px" viewBox="0 0 1024 1024" version="1.1" xmlns="http://www.w3.org/2000/svg"><path fill="#008000" d="M871.765333 170.666667h-230.698666a89.6 89.6 0 0 0-75.52 41.472l-40.234667 62.933333H896V195.072A24.32 24.32 0 0 0 872.021333 170.666667h-0.256z m-198.741333 355.370666h-45.056v63.573334h45.056c10.581333 0.768 21.162667-1.834667 30.165333-7.466667a29.696 29.696 0 0 0 9.6-24.661333 28.288 28.288 0 0 0-9.6-23.978667 47.957333 47.957333 0 0 0-30.122666-7.466667h-0.085334z"  /><path fill="#008000" d="M217.770667 303.616A90.154667 90.154667 0 0 0 128 394.069333v400.213334a90.112 90.112 0 0 0 89.770667 90.496h588.416A90.112 90.112 0 0 0 896 794.325333V303.573333H217.770667z m356.736 222.421333h-61.994667v162.602667h-30.976V526.08H310.954667v52.437333h92.416v26.453334H310.912v83.712h-30.976v-189.141334h294.570667v26.538667z m100.437333 90.026667H628.053333v72.576h-31.061333v-189.141333h78.464c45.738667 0 68.608 19.328 68.608 58.026666 0 38.656-23.04 58.197333-69.12 58.581334z"  /></svg>