<?xml version="1.0" standalone="no"?><!DOCTYPE svg PUBLIC "-//W3C//DTD SVG 1.1//EN" "http://www.w3.org/Graphics/SVG/1.1/DTD/svg11.dtd">
<svg class="icon" width="48px" height="48.00px" viewBox="0 0 1024 1024" version="1.1" xmlns="http://www.w3.org/2000/svg">
    <path d="M323.764221 852.486762H196.910391c-4.353798 0-7.784062-3.496231-7.784062-7.784063V146.643819c0-4.353798 3.496231-7.784062 7.784062-7.784063h126.85383c4.353798 0 7.784062 3.496231 7.784062 7.784063v697.992914c0 4.353798-3.496231 7.850029-7.784062 7.850029zM588.290408 852.486762H461.436578c-4.353798 0-7.784062-3.496231-7.784062-7.784063V146.643819c0-4.353798 3.496231-7.784062 7.784062-7.784063h126.85383c4.353798 0 7.784062 3.496231 7.784062 7.784063v697.992914c0 4.353798-3.430265 7.850029-7.784062 7.850029z"
          fill="#FF6601"/>
    <path d="M847.011531 852.486762H202.517555c-7.454229 0-13.457193-6.134897-13.457193-13.457193V435.775559c0-7.454229 6.134897-13.457193 13.457193-13.457193h644.493976c7.454229 0 13.457193 6.134897 13.457193 13.457193v403.188043c0.1979 7.520196-6.002963 13.523159-13.457193 13.52316z"
          fill="#FF6601"/>
    <path d="M729.458996 709.471107H602.077433c-5.013464 0-9.169362-4.155898-9.169361-9.169361v-127.315596c0-5.013464 4.155898-9.169362 9.169361-9.169362h127.381563c5.013464 0 9.169362 4.155898 9.169362 9.169362v127.381562c0 5.145397-4.155898 9.103395-9.169362 9.103395z" fill="#FFFFFF"/>
</svg>