<?xml version="1.0" standalone="no"?><!DOCTYPE svg PUBLIC "-//W3C//DTD SVG 1.1//EN" "http://www.w3.org/Graphics/SVG/1.1/DTD/svg11.dtd">
<svg class="icon" width="48px" height="48.00px" viewBox="0 0 1024 1024" version="1.1" xmlns="http://www.w3.org/2000/svg">
    <path fill="#008000"
          d="M170.432 0h683.136A170.432 170.432 0 0 1 1024 170.432v683.136A170.432 170.432 0 0 1 853.568 1024H170.432A170.432 170.432 0 0 1 0 853.568V170.432A170.432 170.432 0 0 1 170.432 0z m0 57.024A112.64 112.64 0 0 0 57.024 170.432v683.136a112.64 112.64 0 0 0 113.344 113.344h683.2a112.64 112.64 0 0 0 113.344-113.344V170.432A112.64 112.64 0 0 0 853.568 57.024H170.432z"/>
    <path fill="#008000" d="M513.216 301.248L280.96 861.632l232.256-226.048 232.256 226.048-232.256-560.384z"/>
    <path fill="#008000"
          d="M439.04 835.776l9.92 2.304c-2.496 9.408-4.928 14.144-9.856 18.88a27.392 27.392 0 0 1-17.28 7.04 36.288 36.288 0 0 1-14.848-4.736c-4.928-2.304-7.424-7.04-9.92-14.08A36.8 36.8 0 0 1 389.632 824c0-9.472 2.56-16.512 4.992-21.248a63.232 63.232 0 0 1 12.352-14.08c4.928-2.368 9.856-4.736 14.784-4.736 7.424 0 12.352 2.368 17.28 4.736a37.568 37.568 0 0 1 9.92 16.448l-9.856 4.736c-2.496-9.408-9.92-16.512-17.28-16.512-4.992 0-7.424 0-12.416 2.368-2.432 2.368-4.928 7.04-7.36 9.408-2.56 4.736-2.56 9.408-2.56 16.512 0 9.408 2.56 18.816 4.992 23.552 2.496 4.672 9.92 7.04 14.848 7.04a19.392 19.392 0 0 0 12.352-4.736c4.928 0 7.424-4.672 7.424-11.776z m12.416 25.856l24.704-75.328h9.856l27.2 75.328h-9.92l-7.36-23.552h-27.2l-7.424 23.552h-9.856z m19.712-30.592h22.272l-7.424-21.184c-2.432-4.736-2.432-9.408-4.928-16.512 0 4.736-2.496 9.408-2.496 14.144l-7.424 23.552z m44.48 7.04h7.424c0 2.368 0 7.04 2.496 9.408 2.432 2.368 4.928 4.736 7.424 4.736 2.432 2.368 4.928 2.368 9.856 2.368a19.392 19.392 0 0 0 12.352-4.736c2.496-2.368 4.928-4.672 4.928-9.408 0-2.368 0-4.672-2.432-4.672 0-2.368-2.496-2.368-4.992-4.736-4.928-2.368-9.856-2.368-12.352-4.736A19.392 19.392 0 0 1 528 821.632c-2.432-2.368-4.928-4.736-4.928-7.04-2.432-2.368-2.432-7.04-2.432-9.472 0-7.04 2.432-11.776 7.36-14.08 4.992-4.736 9.92-4.736 17.28-4.736 4.992 0 9.92 0 12.416 2.368 2.432 2.368 7.424 4.672 7.424 7.04 2.432 2.368 2.432 7.04 2.432 11.776h-7.424a17.536 17.536 0 0 0-4.928-11.776 19.392 19.392 0 0 0-12.352-4.672c-4.928 0-7.424 0-12.352 2.304-2.496 2.368-4.928 4.736-4.928 7.04 0 2.368 0 4.736 2.432 7.104 2.496 2.368 4.992 2.368 12.352 4.736 7.424 2.304 9.92 2.304 12.352 4.672 2.56 2.368 7.424 4.736 9.92 7.04 2.432 2.368 2.432 7.104 2.432 11.776 0 4.736 0 9.472-2.432 11.776-2.496 2.368-4.928 7.04-9.92 7.04 0 9.472-4.928 9.472-9.856 9.472a28.8 28.8 0 0 1-19.776-7.04 157.248 157.248 0 0 1-7.424-18.88z m111.232-2.368l9.856 2.368c-2.496 9.408-4.928 14.144-9.856 18.88A22.976 22.976 0 0 1 609.6 864a36.288 36.288 0 0 1-14.848-4.736c-4.928-2.304-7.424-7.04-9.92-14.08-2.432-7.04-4.928-14.144-4.928-21.184 0-9.472 2.496-16.512 4.928-21.248 2.496-4.672 7.424-9.408 9.92-14.08 4.928-2.368 9.856-4.736 14.784-4.736 7.424 0 12.352 2.368 17.28 4.736a37.568 37.568 0 0 1 9.92 16.448l-7.424 2.368c-2.432-9.408-9.856-16.512-17.28-16.512-4.928 0-7.424 0-12.352 2.368-2.496 2.368-4.928 7.04-7.424 9.408-4.928 9.472-4.928 14.144-4.928 21.248 0 9.408 2.496 18.816 4.928 23.488 2.496 4.736 9.92 7.04 14.848 7.04a19.392 19.392 0 0 0 12.352-4.672c4.928-2.368 7.424-7.04 7.424-14.08z m56.832-534.4c-7.424 0-14.848 0-22.272 2.304a160.512 160.512 0 0 0-49.408-96.512C579.904 176.512 537.92 160 490.944 160c-46.912 0-88.96 14.08-121.024 44.736a160.128 160.128 0 0 0-49.408 115.392c0 7.04 0 14.08 2.432 21.12h-2.432C248.832 341.312 192 395.52 192 463.808S248.832 586.24 320.512 586.24v-40.064c-46.976 0-86.528-37.632-86.528-82.368 0-44.8 39.552-82.432 86.528-82.432 7.36 0 14.784 0 24.704 4.736l39.488 11.776-14.784-37.696a114.56 114.56 0 0 1-7.424-40c0-68.288 56.832-122.432 128.448-122.432 71.68 0 128.512 54.144 128.512 122.432v7.04l-2.496 30.592 29.632-9.408a103.424 103.424 0 0 1 52.736-6.08 112 112 0 0 1 34.56 10.752 108.608 108.608 0 0 1 28.8 21.312 103.808 103.808 0 0 1 17.28 24.768 101.12 101.12 0 0 1 8.064 23.68 106.304 106.304 0 0 1 1.92 19.776c0 49.408-22.272 101.248-86.528 101.248v40c39.552 0 74.176-14.08 96.384-44.736 19.776-25.92 32.128-58.88 32.128-98.88 2.496-75.328-64.256-138.88-148.224-138.88z"/>
</svg>