<?xml version="1.0" standalone="no"?><!DOCTYPE svg PUBLIC "-//W3C//DTD SVG 1.1//EN" "http://www.w3.org/Graphics/SVG/1.1/DTD/svg11.dtd"><svg t="1767439605986" class="icon" viewBox="0 0 1024 1024" version="1.1" xmlns="http://www.w3.org/2000/svg" p-id="4470" xmlns:xlink="http://www.w3.org/1999/xlink" width="48" height="48"><path d="M814.659368 269.918316c-2.398316 0.323368-5.861053 0.727579-7.626105 0.970105a163.435789 163.435789 0 0 0-21.733052 4.931368c-24.481684 7.424-45.743158 20.102737-64.350316 38.265264-5.295158 5.093053-15.413895 16.963368-15.413895 18.000842 0 0.242526 2.250105 0.080842 5.066105-0.552421 13.716211-2.910316 40.192-3.233684 54.312421-0.727579 1.118316 0.242526 3.206737 0.565895 4.581053 0.808421 17.569684 2.896842 42.199579 12.826947 58.408421 23.578947a165.618526 165.618526 0 0 1 62.814316 77.338948c3.610947 9.121684 7.383579 22.285474 8.59621 29.466947 0.229053 1.536 0.552421 3.718737 0.808421 4.850526 2.56 13.648842 2.802526 32.053895 0.714106 48.033684-2.169263 16.963368-10.590316 43.358316-17.246316 54.177685-3.220211 5.254737-2.250105 5.093053 14.511158-3.058527 30.181053-14.699789 56.562526-41.741474 70.925473-72.59621 5.537684-11.937684 10.590316-27.607579 12.207158-37.537684 0.229053-1.697684 0.552421-3.314526 0.714106-3.557053 1.441684-2.425263 2.250105-35.920842 1.050947-45.446737-8.111158-64.202105-54.649263-117.409684-116.277895-132.904421a110.214737 110.214737 0 0 0-17.55621-3.395368c-8.111158-1.131789-28.321684-1.455158-34.492632-0.646737z" fill="#D8D8D8" p-id="4471"></path><path d="M183.605895 312.912842c-0.175158 0.148211-3.610947 0.471579-7.706948 0.714105-4.028632 0.323368-8.286316 0.633263-9.431579 0.808421-1.077895 0.229053-3.772632 0.538947-5.901473 0.862316-2.209684 0.323368-4.850526 0.646737-5.73979 0.889263-0.983579 0.161684-3.112421 0.552421-4.675368 0.794948-10.644211 1.522526-28.119579 6.952421-39.262316 11.991579-29.44 13.419789-47.966316 36.271158-54.608842 67.260631-3.193263 15.184842-3.193263 38.036211 0.080842 53.530948 5.093053 24.293053 19.604211 45.621895 43.37179 63.919158 4.432842 3.354947 22.218105 15.333053 22.878315 15.333052 0.242526 0 3.934316 2.155789 8.272842 4.796632 4.352 2.640842 8.030316 4.796632 8.205474 4.796631 0.808421 0 82.795789 48.330105 84.021895 49.529263 0.256 0.242526 2.627368 1.845895 5.335579 3.597474 2.694737 1.751579 7.868632 6.063158 11.560421 9.674105 7.545263 7.181474 12.126316 15.090526 13.20421 22.770527 1.711158 12.220632-0.417684 27.715368-5.173894 36.742737-5.416421 10.549895-17.542737 18.216421-34.357895 21.962105-12.449684 2.721684-45.487158 3.045053-80.74779 0.727579-2.950737-0.161684-9.175579-0.552421-13.931789-0.87579-4.756211-0.242526-10.24-0.565895-12.301474-0.727579-2.048-0.148211-6.965895-0.552421-11.061894-0.794947-4.015158-0.323368-7.626105-0.714105-7.868632-0.875789a50.714947 50.714947 0 0 0-7.221895-0.485053c-7.450947-0.148211-9.835789 0.889263-12.705684 5.753263-1.482105 2.398316-1.549474 4.473263-1.643789 24.697263-0.080842 12.126316 0.175158 23.322947 0.579368 24.845474 1.387789 5.510737 5.901474 8.299789 16.976842 10.455579 9.256421 1.751579 9.835789 1.845895 20.07579 3.516631 8.771368 1.360842 18.458947 2.640842 25.829052 3.206737 2.950737 0.229053 6.804211 0.633263 8.609684 0.794948 14.268632 1.347368 48.289684 1.832421 64.673685 0.956631 8.528842-0.552421 13.042526-1.037474 28.779789-3.354947 7.868632-1.199158 28.119579-6.790737 34.681263-9.674105 13.931789-5.982316 20.574316-9.660632 29.682527-16.370527 10.738526-7.909053 21.315368-19.173053 27.621052-29.480421 2.694737-4.392421 7.626105-13.824 7.626105-14.618947 0-0.404211 0.485053-1.845895 1.145264-3.193263 1.886316-4.163368 3.691789-10.078316 5.335579-18.135579 6.224842-29.722947 1.967158-61.520842-11.398737-85.09979-5.820632-10.293895-18.688-25.397895-27.957895-32.741052-1.064421-0.889263-3.853474-3.125895-6.063158-4.877474-8.690526-6.952421-24.602947-16.936421-43.048421-26.933895-2.048-1.037474-9.916632-5.349053-17.623579-9.498947l-18.768842-10.24c-2.694737-1.428211-8.030316-4.378947-11.802947-6.467369-3.853474-2.155789-7.141053-3.907368-7.302737-3.907368-0.808421 0-23.04-12.867368-30.167579-17.502316-9.269895-5.982316-18.768842-14.686316-21.962105-20.048842-5.012211-8.623158-6.332632-21.894737-2.964211-31.878737 4.109474-12.139789 14.430316-20.614737 30.342737-24.764631 5.322105-1.441684 8.757895-1.994105 18.270316-2.964211 3.287579-0.309895 31.892211-0.309895 43.951158 0.080842 21.072842 0.646737 55.821474 2.721684 68.203789 4.001684 1.724632 0.161684 7.221895 0.552421 12.301474 0.808422 8.272842 0.471579 9.512421 0.309895 11.802947-1.050948 4.917895-3.031579 5.079579-4.392421 4.917895-31.312842-0.161684-26.448842-0.080842-26.138947-4.917895-29.399579-2.371368-1.603368-12.867368-4.163368-21.800421-5.281684l-12.301474-1.670737a535.659789 535.659789 0 0 0-21.234526-2.398316 464.949895 464.949895 0 0 0-19.752421-1.603368 556.786526 556.786526 0 0 1-11.897263-0.87579c-5.322105-0.485053-52.628211-1.118316-53.032421-0.714105zM383.851789 425.862737c-4.271158 0.875789-7.841684 4.944842-8.394105 9.647158-0.323368 2.465684 0.242526 6.534737 2.290527 15.696842 0.161684 0.794947 0.565895 2.708211 0.808421 4.136421 0.229053 1.522526 0.619789 3.435789 0.781473 4.311579 0.161684 0.875789 1.509053 7.329684 2.856421 14.349474 1.347368 7.006316 3.314526 16.882526 4.352 21.90821 1.024 5.025684 2.128842 10.442105 2.371369 11.951158 0.242526 1.522526 2.452211 12.665263 4.837052 24.710737 2.371368 12.032 4.513684 22.878316 4.661895 24.144842 0.242526 1.199158 0.943158 4.715789 1.589895 7.733895 0.633263 3.031579 1.347368 6.602105 1.576421 7.895579 0.242526 1.266526 1.832421 9.566316 3.570526 18.405052 1.751579 8.838737 3.328 17.205895 3.557053 18.647579 0.242526 1.347368 0.633263 3.031579 0.808421 3.664842l0.700631 3.193263c2.613895 13.864421 4.271158 22.393263 8.394106 43.034948 2.613895 13.379368 5.537684 27.890526 6.332631 32.269473 4.675368 24.629895 7.046737 33.145263 11.479579 42.24 5.632 11.398737 13.945263 17.300211 28.510316 20.07579 1.751579 0.323368 11.722105 0.565895 22.177684 0.565895 20.021895 0 25.411368-0.714105 33.091369-4.217263 3.718737-1.684211 10.927158-6.534737 13.069473-8.690527 6.332632-6.615579 11.560421-15.939368 14.807579-26.853052a3259.418947 3259.418947 0 0 0 15.440842-59.378527c0.309895-1.509053 2.290526-9.242947 4.352-17.138526 2.061474-7.882105 3.799579-14.901895 3.961264-15.535158 0.161684-0.633263 1.886316-7.491368 3.880421-15.144421 6.170947-23.754105 12.355368-47.656421 15.912421-61.844211 3.489684-14.106947 4.837053-17.690947 5.928421-16.572631 0.485053 0.552421 5.322105 17.771789 6.736842 24.225684 0.242526 1.347368 7.68 30.356211 9.903158 38.656 0.794947 3.018105 3.799579 14.901895 6.736842 26.300632 2.923789 11.385263 6.804211 26.610526 8.704 33.859368 1.818947 7.262316 6.103579 23.754105 9.431579 36.661895 7.114105 27.971368 8.380632 32.040421 12.422737 39.855158 5.470316 10.590316 13.931789 18.405053 24.077473 22.231579 8.623158 3.260632 12.355368 3.664842 32.862316 3.664842 19.550316 0 24.697263-0.714105 33.091369-4.45979 10.617263-4.783158 17.744842-15.696842 22.406736-34.19621 1.832421-7.410526 1.980632-8.124632 2.613895-12.032 0.242526-1.509053 1.199158-6.292211 2.061474-10.671158l2.061473-10.374737c0.161684-1.347368 0.552421-2.937263 0.714106-3.584a35.301053 35.301053 0 0 0 0.714105-3.584c0.229053-1.347368 1.185684-6.130526 2.128842-10.752 0.956632-4.621474 1.832421-9.094737 1.980632-9.970526 0.080842-0.875789 0.633263-3.584 1.118315-5.968842 0.471579-2.398316 1.024-5.254737 1.266527-6.373053 0.229053-1.118316 1.738105-9.013895 3.47621-17.542737 1.670737-8.528842 3.247158-16.410947 3.408842-17.529263 0.242526-1.118316 2.775579-14.106947 5.618527-28.847158 2.937263-14.740211 5.470316-27.661474 5.618526-28.698947 0.242526-1.024 0.714105-3.664842 1.199158-5.807158 0.471579-2.236632 0.943158-4.864 1.185684-5.982316 0.229053-1.118316 0.538947-2.869895 0.794948-3.98821l0.700631-3.584c0.404211-1.751579 3.408842-17.219368 3.961263-20.318316 0.161684-1.118316 1.118316-5.739789 2.061474-10.374737 0.943158-4.608 1.818947-9.229474 1.980632-10.34779 0.161684-1.118316 1.024-5.416421 1.899789-9.566315 0.875789-4.136421 1.818947-8.690526 1.980632-9.970527 0.242526-1.347368 1.657263-8.757895 3.247157-16.491789 1.509053-7.720421 2.775579-15.225263 2.775579-16.653474a11.789474 11.789474 0 0 0-5.470315-9.647158c-2.842947-1.832421-3.004632-1.832421-33.724632-1.832421-28.510316 0-31.124211 0.080842-33.104842 1.441684-3.098947 1.994105-5.066105 5.578105-5.699368 10.361264-0.323368 2.304-0.714105 4.850526-0.794948 5.739789a98.789053 98.789053 0 0 0-0.794947 5.173895c-0.229053 1.994105-0.781474 5.578105-1.185684 7.976421-0.404211 2.384842-0.943158 5.968842-1.185685 7.962947-0.242526 1.994105-0.794947 5.578105-1.185684 7.976421-0.404211 2.384842-0.943158 6.130526-1.266526 8.353684a101.995789 101.995789 0 0 1-0.794948 5.591579 98.789053 98.789053 0 0 0-0.794947 5.173895 61.386105 61.386105 0 0 1-0.714105 4.783158c-0.148211 0.633263-0.538947 3.098947-0.781474 5.497263-0.323368 2.398316-0.633263 4.864-0.808421 5.578105-0.134737 1.118316-0.538947 3.503158-1.576421 10.442106-0.862316 5.416421-2.842947 18.970947-3.166316 21.126737-0.309895 2.304-1.657263 11.627789-2.45221 17.125052l-1.980632 13.150316c-0.471579 3.503158-1.024 7.100632-1.185684 7.976421-0.161684 0.794947-0.471579 2.950737-0.714105 4.783158-0.242526 1.751579-0.633263 4.055579-0.794948 5.173895-0.148211 1.118316-0.538947 3.584-0.781473 5.578105-0.404211 3.193263-1.509053 10.509474-2.384842 15.939368-0.161684 1.118316-0.538947 3.584-0.794948 5.578106-0.633263 4.459789-1.104842 7.814737-1.576421 10.374736-0.161684 1.104842-0.552421 3.570526-0.794947 5.564632a1090.856421 1090.856421 0 0 1-3.233684 21.517474c-0.175158 1.118316-0.485053 3.745684-0.808422 5.982316-0.229053 2.155789-0.538947 4.136421-0.700631 4.378947a69.066105 69.066105 0 0 0-0.808421 5.578105 39.612632 39.612632 0 0 1-0.862316 5.658948 69.079579 69.079579 0 0 0-0.794947 5.578105c-0.633263 6.063158-1.886316 10.442105-3.233685 10.846316-0.485053 0.229053-1.509053-0.727579-2.155789-1.994106-0.943158-1.832421-5.133474-17.690947-7.194947-27.257263-0.161684-0.633263-5.146947-20.965053-11.088842-45.029052-5.928421-24.144842-10.913684-44.557474-11.169685-45.433264a1160.218947 1160.218947 0 0 0-4.742737-19.523368c-2.452211-9.876211-4.594526-18.566737-4.75621-19.361684-0.161684-0.714105-0.471579-1.994105-0.633263-2.789053a722.458947 722.458947 0 0 0-2.452211-9.728c-1.185684-4.621474-2.290526-9.081263-2.45221-9.970526-1.104842-5.726316-6.817684-27.082105-8.232421-30.908632-3.570526-9.485474-9.269895-14.268632-18.378106-15.386947-5.308632-0.714105-58.435368-0.714105-63.029894-0.080842-8.151579 1.212632-13.298526 5.106526-16.869053 12.840421-1.886316 4.136421-6.090105 18.647579-7.356632 25.182316-0.161684 1.118316-2.223158 9.323789-4.446315 18.32421-2.209684 9.013895-4.176842 16.896-4.352 17.610105a12260.298105 12260.298105 0 0 0-15.912421 64.633264c-0.161684 0.808421-0.471579 2.074947-0.633264 2.802526-0.161684 0.794947-2.371368 9.566316-4.823578 19.523368-2.384842 9.876211-4.513684 18.647579-4.675369 19.523369-0.161684 0.794947-1.104842 4.459789-2.061474 8.205473l-1.980631 7.976421c-0.229053 1.104842-2.452211 10.037895-3.166316 12.746106-0.161684 0.633263-0.943158 4.069053-1.818947 7.57221-2.061474 8.448-3.004632 10.752-4.446316 10.752-1.482105 0-2.600421-3.974737-4.028632-14.336a52.318316 52.318316 0 0 0-0.794947-4.783158c-0.148211-0.646737-0.471579-3.031579-0.781474-5.187368a266.509474 266.509474 0 0 0-1.589894-11.156211c-0.633263-3.988211-1.347368-8.757895-1.589895-10.752a52.318316 52.318316 0 0 0-0.781474-4.783158c-0.161684-0.646737-0.485053-3.031579-0.808421-5.187368a81.165474 81.165474 0 0 0-0.781474-5.968842c-0.161684-1.118316-0.552421-3.435789-0.794947-5.187368-0.229053-1.751579-0.943158-6.453895-1.495579-10.361264-0.633263-3.974737-1.347368-9.000421-1.670737-11.15621a53.436632 53.436632 0 0 0-0.794947-5.173895 58.004211 58.004211 0 0 1-0.781474-5.187368 266.509474 266.509474 0 0 0-1.589895-11.156211c-1.185684-7.814737-2.775579-17.92-3.166315-21.113263-0.161684-1.118316-0.552421-3.584-0.87579-5.578105-0.309895-1.994105-0.633263-4.473263-0.781474-5.578106-0.242526-2.479158-0.714105-5.578105-2.775578-19.132631-0.943158-5.901474-1.751579-11.627789-1.89979-12.746105-0.161684-1.118316-0.633263-4.311579-1.104842-7.181474a236.988632 236.988632 0 0 1-1.266526-8.757895 220.739368 220.739368 0 0 0-1.199158-7.976421c-0.390737-2.384842-0.943158-6.211368-1.185684-8.353684-0.309895-2.236632-0.633263-4.554105-0.781474-5.187368a58.004211 58.004211 0 0 1-0.808421-5.187369 177.152 177.152 0 0 0-1.172211-8.353684 863.232 863.232 0 0 1-3.637894-24.710737c-0.875789-7.019789-2.304-9.889684-6.265264-12.43621-2.142316-1.441684-4.042105-1.522526-31.663158-1.522527-16.168421 0-30.585263 0.161684-32 0.485053z" fill="#1890FF" p-id="4472"></path></svg>