<?xml version="1.0" standalone="no"?><!DOCTYPE svg PUBLIC "-//W3C//DTD SVG 1.1//EN" "http://www.w3.org/Graphics/SVG/1.1/DTD/svg11.dtd"><svg class="icon" width="48px" height="48.00px" viewBox="0 0 1024 1024" version="1.1" xmlns="http://www.w3.org/2000/svg"><path fill="#008000" d="M832 864.096c10.656 0 20.864 3.392 28.384 9.408 7.488 5.984 11.68 14.08 11.616 22.528 0.064 8.448-4.128 16.544-11.616 22.56A45.984 45.984 0 0 1 832 928H208a45.984 45.984 0 0 1-28.352-9.408c-7.52-6.016-11.712-14.112-11.648-22.56-0.064-8.416 4.16-16.544 11.648-22.528 7.488-6.016 17.696-9.376 28.352-9.408zM512 96c155.2 0 282.816 106.592 298.4 243.264 104.32 23.616 181.6 108.992 181.6 210.688 0 119.968-107.456 217.152-240 217.152h-480c-132.544 0.032-240-97.28-240-217.152 0-101.696 77.28-187.072 181.6-210.688C229.184 202.624 356.8 96 512 96z m334.624 346.56H657.6l-18.4 210.528h63.424l8.832-101.536h128.832l6.336-108.992z m-448.48 0H198.88v26.88H258.24l-18.56 180.544h65.664l18.56-180.576h74.24v-26.848z m224.576-0.704h-189.984l-18.112 207.424h192.352v-26.88h-125.12l13.76-153.696h127.104v-26.848z m158.912 25.6l-3.936 59.2H713.6l5.216-59.2h62.848z"  /></svg>