<?xml version="1.0" standalone="no"?><!DOCTYPE svg PUBLIC "-//W3C//DTD SVG 1.1//EN" "http://www.w3.org/Graphics/SVG/1.1/DTD/svg11.dtd"><svg class="icon" width="48px" height="48.00px" viewBox="0 0 1024 1024" version="1.1" xmlns="http://www.w3.org/2000/svg"><path fill="#008000" d="M460.8 128a59.7248 59.7248 0 1 0 119.4496 0A59.7248 59.7248 0 0 0 460.8 128zM887.4496 418.1504a59.7248 59.7248 0 1 0 119.4752 0 59.7248 59.7248 0 0 0-119.4752 0zM34.1248 418.1504a59.7248 59.7248 0 1 0 119.4752 0 59.7248 59.7248 0 0 0-119.4752 0zM716.8 913.0752a59.7248 59.7248 0 1 0 119.4496 0 59.7248 59.7248 0 0 0-119.4496 0zM204.8 913.0752a59.7248 59.7248 0 1 0 119.4496 0 59.7248 59.7248 0 0 0-119.4496 0zM207.1552 853.3504L113.0496 524.0832l24.6272-7.04 94.08 329.3952-24.6016 6.912zM199.0144 380.16l-15.616-20.3008 244.6336-188.16 15.616 20.2752-244.6336 188.16zM691.8656 879.104L164.9664 502.7328l14.8736-20.8128 526.8992 376.3456-14.8736 20.8384z"  /><path fill="#008000" d="M306.944 844.1088l-24.4736-7.424 188.16-620.9536 24.5248 7.424-188.1856 620.9536zM838.6048 853.3504l-24.6016-7.0144 94.08-329.2928 24.6272 7.04-94.1056 329.2672zM846.72 380.16L602.112 191.9744l15.5904-20.2752 244.6336 188.16-15.616 20.3008zM353.8944 879.104l-14.8736-20.8384 526.8992-376.3456 14.8736 20.8128L353.8944 879.104z"  /><path fill="#008000" d="M738.7648 844.1088l-188.16-620.928 24.4992-7.424 188.16 620.9792-24.4992 7.3728z"  /><path fill="#008000" d="M849.8432 439.2704H191.232v-25.6h658.6112v25.6zM699.2896 956.7488H341.76v-25.6h357.5296v25.6z"  /></svg>