<svg width="20" height="20" viewBox="0 0 20 20" fill="none" xmlns="http://www.w3.org/2000/svg">
    <g clip-path="url(#a)">
        <path fill-rule="evenodd" clip-rule="evenodd"
              d="M14.412 10.824a1.212 1.212 0 0 0 .733.35c.721.135 1.335.406 1.892.965.04.04.08.081.118.123a.291.291 0 1 0 .37-.447 4.053 4.053 0 0 1-.083-.081c-.546-.546-.813-1.143-.954-1.848a1.149 1.149 0 0 0-.04-.247 1.216 1.216 0 0 0-2.036-.54 1.222 1.222 0 0 0 0 1.725z" fill="#2DBC00"/>
        <path fill-rule="evenodd" clip-rule="evenodd"
              d="M17.92 12.473a1.217 1.217 0 0 0-.349.735c-.134.722-.405 1.337-.962 1.895-.04.04-.082.08-.123.118a.292.292 0 1 0 .446.372 3.739 3.739 0 0 1 2-1.114 1.205 1.205 0 0 0 .247-.042c.197-.054.31-.083.464-.239a1.222 1.222 0 0 0 0-1.725 1.216 1.216 0 0 0-1.722 0z" fill="#0085F2"/>
        <path fill-rule="evenodd" clip-rule="evenodd" d="M15.616 15.65a1.123 1.123 0 0 0-.074-.01c-.72-.135-1.335-.406-1.892-.965-.04-.04-.08-.081-.117-.123a.29.29 0 1 0-.371.446l.084.082c.545.546.813 1.143.953 1.847a1.18 1.18 0 0 0 .04.248 1.216 1.216 0 0 0 2.036.54 1.222 1.222 0 0 0-.66-2.065z"
              fill="#FB6500"/>
        <path fill-rule="evenodd" clip-rule="evenodd" d="M13.116 13.606c.134-.722.405-1.338.962-1.896.04-.04.082-.08.123-.117a.292.292 0 0 0 0-.413.29.29 0 0 0-.446.04 3.41 3.41 0 0 1-.081.085c-.545.546-1.14.814-1.844.955a1.219 1.219 0 1 0 1.286 1.346z" fill="#FC0"/>
        <path d="M16.437 8.304a2.21 2.21 0 0 0-1.136-.313c-.28 0-.548.052-.795.147-.226-2.87-2.99-5.058-6.36-5.058-3.517 0-6.21 2.385-6.21 5.44 0 1.658.796 3.129 2.22 4.16.075.055.106.107.14.232.033.125.03.17 0 .29l-.304 1.185c-.03.11-.042.147.01.183.05.037.125-.009.173-.038l1.376-.822a.744.744 0 0 1 .316-.101c.145-.012.211.016.326.049.632.18 1.274.293 1.954.293a7.53 7.53 0 0 0 1.822-.221 1.84 1.84 0 0 0 .989 1.592 9.265 9.265 0 0 1-2.707.398c-.852 0-1.794-.163-2.59-.383l-2.358 1.21c-.137.07-.334.124-.486.078-.406-.12-.57-.383-.513-.81l.294-2.018C.994 12.441 0 10.495 0 8.497 0 4.492 3.697 1.25 8.25 1.25c4.48 0 8.072 3.137 8.187 7.054z"
              fill="#0085F2"/>
    </g>
    <defs>
        <clipPath id="a">
            <path fill="#fff" d="M0 0h20v20H0z"/>
        </clipPath>
    </defs>
</svg>