<?xml version="1.0" standalone="no"?><!DOCTYPE svg PUBLIC "-//W3C//DTD SVG 1.1//EN" "http://www.w3.org/Graphics/SVG/1.1/DTD/svg11.dtd">
<svg class="icon" width="48px" height="46.11px" viewBox="0 0 1066 1024" version="1.1" xmlns="http://www.w3.org/2000/svg">
    <path d="M637.696 807.04l-25.642667-75.648 2.858667 75.050667a1126.570667 1126.570667 0 0 1-100.778667-8.448l-37.717333-111.232 4.053333 106.453333a1231.146667 1231.146667 0 0 1-86.272-16.938667l-41.557333-122.752 4.266667 113.408a1389.056 1389.056 0 0 1-95.701334-29.013333l-50.517333-149.034667 4.992 132.608a1550.890667 1550.890667 0 0 1-67.413333-27.306666c-11.349333-11.306667-19.84-42.112-26.026667-76.586667l-3.2-19.114667-2.730667-19.2-2.304-18.858666-2.730666-26.197334-2.816-33.578666-0.853334-13.184L35.84 439.381333l100.693333 8.96 34.517334-17.749333 22.357333-11.093333 25.002667-11.904 17.28-7.893334 17.237333-7.509333 16.64-6.826667c24.32-9.557333 44.970667-15.786667 54.442667-13.909333 19.2 15.189333 38.485333 29.781333 58.026666 43.776l-91.690666 51.2 127.872-25.941333c28.245333 19.114667 56.832 37.077333 85.461333 53.888l-101.632 56.789333 148.352-30.208c28.416 15.658667 56.832 30.250667 84.778667 43.818667l-91.178667 50.901333 139.434667-28.330667c32.810667 14.805333 64.853333 28.288 95.872 40.362667l-67.754667 37.845333 108.928-22.186666c23.808 8.746667 46.805333 16.725333 68.778667 23.893333l32.170666 10.24c15.658667 4.864 30.72 9.301333 45.056 13.312l27.648 7.552 25.6 6.528 23.381334 5.546667c0 0.298667-0.256 0.682667-0.768 1.28l-2.304 2.005333-3.754667 2.816-5.290667 3.498667-10.666666 6.314666-8.917334 4.821334-10.325333 5.205333-11.776 5.546667-13.141333 5.76-14.549334 5.888-15.914666 5.973333c-2.773333 1.024-5.589333 2.005333-8.490667 2.986667l-17.92 5.930666c-18.602667 5.888-39.168 11.52-61.696 16.64l-23.168 4.906667a942.506667 942.506667 0 0 1-196.693333 17.024zM157.610667 461.226667l-3.242667 2.133333-11.946667 6.954667c-8.618667 5.376-12.885333 10.794667-3.968 24.277333C230.101333 554.154667 329.130667 598.144 426.666667 630.613333l27.818666 8.96 27.733334 8.362667 27.477333 7.765333 27.306667 7.253334 27.050666 6.656 26.709334 6.144 26.368 5.674666 25.941333 5.162667 25.514667 4.693333 25.002666 4.266667 24.448 3.882667 23.893334 3.456 23.210666 3.114666 22.570667 2.730667 32.426667 3.456 40.448 3.584 28.032 2.005333 25.813333 1.493334 37.888 1.536 25.173333 0.554666 47.189334-0.256-37.333334-3.84-43.434666-5.12-46.293334-6.229333-31.616-4.608-34.090666-5.290667-48.768-8.192-38.698667-7.082666-26.624-5.12-40.96-8.448-27.861333-6.101334-28.202667-6.442666-28.458667-6.869334-28.586666-7.296-14.378667-3.797333-28.672-7.893333a1984.768 1984.768 0 0 1-28.586667-8.362667l-28.501333-8.746667-28.202667-9.258666c-4.693333-1.536-9.386667-3.157333-13.994666-4.778667l-27.690667-9.898667c-91.52-33.792-175.232-75.477333-236.117333-126.464z"
          fill="#040000"/>
    <path d="M188.714667 344.661333l-6.912-18.218666H122.709333l-6.954666 18.645333a65.28 65.28 0 0 1-6.912 14.72c-1.92 2.56-5.077333 3.797333-9.429334 3.797333a13.781333 13.781333 0 0 1-9.813333-4.053333 12.458667 12.458667 0 0 1-4.266667-9.216 20.48 20.48 0 0 1 0.981334-6.144c0.682667-2.133333 1.749333-5.077333 3.285333-8.832l37.162667-94.378667 3.84-9.770666a49.493333 49.493333 0 0 1 4.736-9.429334 19.328 19.328 0 0 1 6.656-6.101333A20.352 20.352 0 0 1 152.149333 213.333333c4.096 0 7.509333 0.768 10.24 2.346667a19.754667 19.754667 0 0 1 6.656 5.973333c1.706667 2.474667 3.114667 5.12 4.266667 7.893334 1.152 2.816 2.602667 6.570667 4.394667 11.264l37.973333 93.738666c2.986667 7.168 4.48 12.373333 4.48 15.573334a12.885333 12.885333 0 0 1-4.266667 9.258666 13.866667 13.866667 0 0 1-10.112 4.266667 12.202667 12.202667 0 0 1-10.112-4.608 30.805333 30.805333 0 0 1-3.626666-6.570667 363.989333 363.989333 0 0 1-3.328-7.808z m-58.282667-40.32h43.434667L151.893333 244.352l-21.504 59.989333zM336.896 330.112a23.338667 23.338667 0 0 1-2.986667 10.794667 37.12 37.12 0 0 1-9.216 10.965333 47.658667 47.658667 0 0 1-15.616 8.362667c-6.314667 2.133333-13.354667 3.157333-21.248 3.157333-16.682667 0-29.738667-4.864-39.125333-14.592-9.386667-9.770667-14.08-22.826667-14.08-39.253333 0-11.093333 2.133333-20.906667 6.4-29.44 4.309333-8.490667 10.538667-15.061333 18.688-19.754667 8.106667-4.650667 17.834667-6.954667 29.141333-6.954667 6.997333 0 13.397333 1.024 19.285334 3.072 5.845333 2.048 10.794667 4.693333 14.848 7.893334a38.058667 38.058667 0 0 1 9.301333 10.368c2.133333 3.669333 3.242667 7.082667 3.242667 10.24 0 3.285333-1.194667 5.973333-3.626667 8.234666a12.373333 12.373333 0 0 1-8.746667 3.413334 8.832 8.832 0 0 1-5.632-1.749334 27.477333 27.477333 0 0 1-4.992-5.589333 41.045333 41.045333 0 0 0-10.368-11.306667 23.466667 23.466667 0 0 0-13.738666-3.797333 23.381333 23.381333 0 0 0-19.328 9.386667c-4.864 6.229333-7.338667 14.762667-7.338667 25.6 0 5.12 0.64 9.813333 1.92 14.08 1.237333 4.266667 3.072 7.850667 5.418667 10.88 2.389333 2.986667 5.248 5.290667 8.618666 6.826666a26.197333 26.197333 0 0 0 11.093334 2.346667c5.461333 0 10.112-1.28 13.952-3.797333a32.896 32.896 0 0 0 10.24-11.52 26.453333 26.453333 0 0 1 5.376-7.082667c1.92-1.706667 4.266667-2.56 7.04-2.56 3.285333 0 6.058667 1.237333 8.234666 3.754667a12.074667 12.074667 0 0 1 3.242667 8.021333zM361.984 255.957333h2.986667v-16.256c0-4.352 0.128-7.765333 0.341333-10.24a15.146667 15.146667 0 0 1 1.92-6.4 12.928 12.928 0 0 1 11.221333-6.229333 13.354667 13.354667 0 0 1 12.8 10.112c0.512 2.474667 0.768 5.973333 0.768 10.581333v18.432h9.941334c3.84 0 6.741333 0.896 8.746666 2.730667a8.96 8.96 0 0 1 3.029334 6.997333c0 3.626667-1.450667 6.144-4.309334 7.594667a27.946667 27.946667 0 0 1-12.373333 2.218667h-5.034667v49.749333c0 4.224 0.170667 7.466667 0.426667 9.770667a9.941333 9.941333 0 0 0 2.389333 5.546666c1.28 1.408 3.413333 2.133333 6.314667 2.133334a33.664 33.664 0 0 0 6.442667-0.853334 33.578667 33.578667 0 0 1 6.357333-0.853333c2.133333 0 4.138667 0.853333 5.888 2.645333a8.832 8.832 0 0 1 2.645333 6.485334c0 4.352-2.389333 7.68-7.168 10.026666-4.736 2.304-11.605333 3.413333-20.48 3.413334-8.490667 0-14.933333-1.365333-19.242666-4.224a19.754667 19.754667 0 0 1-8.576-11.776 80 80 0 0 1-2.048-20.138667V275.498667H361.386667c-3.882667 0-6.826667-0.938667-8.917334-2.816a9.088 9.088 0 0 1-3.072-6.997334c0-2.858667 1.066667-5.205333 3.242667-6.997333 2.133333-1.834667 5.248-2.730667 9.386667-2.730667zM446.037333 240.981333a14.293333 14.293333 0 0 1-9.642666-3.456 12.245333 12.245333 0 0 1-4.010667-9.813333c0-3.84 1.365333-6.997333 4.096-9.472a13.824 13.824 0 0 1 9.557333-3.712c3.498667 0 6.613333 1.109333 9.344 3.370667 2.688 2.218667 4.053333 5.546667 4.053334 9.813333a12.373333 12.373333 0 0 1-3.968 9.770667 13.696 13.696 0 0 1-9.386667 3.498666z m13.397334 27.946667v78.208c0 5.418667-1.28 9.514667-3.84 12.288a12.8 12.8 0 0 1-9.813334 4.181333 12.202667 12.202667 0 0 1-9.685333-4.266666 18.005333 18.005333 0 0 1-3.712-12.202667V269.738667c0-5.376 1.237333-9.386667 3.712-12.117334a12.501333 12.501333 0 0 1 9.642667-4.053333c3.968 0 7.253333 1.365333 9.813333 4.053333 2.56 2.730667 3.882667 6.485333 3.882667 11.306667zM506.538667 270.421333l21.888 61.44 23.594666-64.128a38.101333 38.101333 0 0 1 5.461334-10.922666c1.749333-2.133333 4.48-3.242667 8.106666-3.242667 3.413333 0 6.4 1.152 8.789334 3.498667a10.837333 10.837333 0 0 1 3.626666 8.021333c0 1.194667-0.256 2.56-0.682666 4.138667a40.192 40.192 0 0 1-1.450667 4.48l-1.962667 4.736-25.941333 64.426666-2.858667 7.04a36.522667 36.522667 0 0 1-3.84 7.296 15.189333 15.189333 0 0 1-5.248 4.693334 15.786667 15.786667 0 0 1-7.594666 1.706666 14.677333 14.677333 0 0 1-9.173334-2.645333 17.706667 17.706667 0 0 1-5.034666-5.717333 192.426667 192.426667 0 0 1-5.546667-12.373334l-25.728-63.701333a278.229333 278.229333 0 0 0-1.834667-4.778667 41.301333 41.301333 0 0 1-1.621333-4.864 17.28 17.28 0 0 1-0.64-4.266666c0-1.834667 0.554667-3.669333 1.706667-5.504a13.141333 13.141333 0 0 1 11.093333-6.186667c4.48 0 7.594667 1.28 9.258667 3.84 1.706667 2.602667 3.541333 6.954667 5.589333 13.013333zM670.293333 315.221333h-52.949333c0.042667 6.144 1.28 11.562667 3.712 16.256 2.432 4.693333 5.632 8.234667 9.6 10.624a25.386667 25.386667 0 0 0 13.226667 3.541334 28.842667 28.842667 0 0 0 16.64-4.693334 59.306667 59.306667 0 0 0 6.954666-5.205333c2.133333-1.834667 4.864-4.352 8.234667-7.509333a8.874667 8.874667 0 0 1 5.973333-1.792 9.813333 9.813333 0 0 1 6.741334 2.261333c1.706667 1.536 2.56 3.669333 2.56 6.442667a17.578667 17.578667 0 0 1-2.858667 8.576 34.048 34.048 0 0 1-8.704 9.386666c-3.84 3.029333-8.704 5.546667-14.549333 7.509334-5.845333 2.005333-12.586667 2.986667-20.181334 2.986666-17.365333 0-30.890667-4.949333-40.533333-14.848-9.642667-9.941333-14.506667-23.381333-14.506667-40.362666 0-7.978667 1.237333-15.402667 3.584-22.272a49.066667 49.066667 0 0 1 10.410667-17.578667c4.565333-4.906667 10.197333-8.618667 16.853333-11.264 6.698667-2.56 14.08-3.882667 22.186667-3.882667 10.581333 0 19.626667 2.218667 27.221333 6.656a45.482667 45.482667 0 0 1 22.613334 38.912c0.042667 6.826667-1.92 11.221333-5.802667 13.226667a36.394667 36.394667 0 0 1-16.469333 3.029333z m-52.949333-15.36h49.066667c-0.64-9.258667-3.157333-16.170667-7.466667-20.778666a22.4 22.4 0 0 0-17.109333-6.869334 21.674667 21.674667 0 0 0-16.64 6.997334c-4.266667 4.650667-6.912 11.52-7.850667 20.650666zM766.293333 339.2l-23.253333-92.586667v100.352c0 5.546667-1.28 9.685333-3.712 12.458667a12.586667 12.586667 0 0 1-9.856 4.181333 12.586667 12.586667 0 0 1-9.728-4.096c-2.517333-2.773333-3.754667-6.954667-3.754667-12.544V231.978667c0-6.357333 1.621333-10.666667 4.949334-12.842667a23.722667 23.722667 0 0 1 13.354666-3.328h9.130667c5.504 0 9.472 0.512 11.946667 1.493333a10.026667 10.026667 0 0 1 5.546666 5.333334c1.152 2.56 2.517333 6.826667 4.010667 12.586666l21.12 79.616 21.12-79.616c1.536-5.802667 2.858667-9.984 4.053333-12.586666a10.026667 10.026667 0 0 1 5.546667-5.333334 34.773333 34.773333 0 0 1 11.946667-1.493333h9.088c5.632 0 10.069333 1.109333 13.397333 3.328 3.285333 2.218667 4.949333 6.485333 4.949333 12.8v115.029333c0 5.546667-1.28 9.685333-3.712 12.458667a12.672 12.672 0 0 1-9.984 4.181333 12.373333 12.373333 0 0 1-9.6-4.181333c-2.517333-2.773333-3.754667-6.912-3.754666-12.458667V246.613333l-23.296 92.586667c-1.536 5.973333-2.773333 10.410667-3.712 13.226667a18.261333 18.261333 0 0 1-5.333334 7.68 15.488 15.488 0 0 1-10.666666 3.413333 16.170667 16.170667 0 0 1-8.746667-2.176 16.042667 16.042667 0 0 1-5.546667-5.717333 32.512 32.512 0 0 1-3.114666-7.68 915.626667 915.626667 0 0 1-2.346667-8.789334zM1003.221333 343.082667c4.309333 2.901333 9.002667 5.717333 14.08 8.490666 5.12 2.730667 8.490667 4.906667 10.112 6.528 1.664 1.621333 2.474667 3.925333 2.474667 6.912 0 2.133333-0.938667 4.224-2.901333 6.314667a9.301333 9.301333 0 0 1-7.082667 3.2 20.608 20.608 0 0 1-8.192-2.218667 91.861333 91.861333 0 0 1-11.306667-6.314666 329.728 329.728 0 0 1-14.208-9.728c-9.6 4.906667-21.333333 7.338667-35.285333 7.338666-11.306667 0-21.418667-1.792-30.378667-5.418666a59.733333 59.733333 0 0 1-22.570666-15.530667 67.072 67.072 0 0 1-13.738667-24.149333 96.597333 96.597333 0 0 1-4.608-30.421334c0-11.178667 1.621333-21.418667 4.821333-30.72 3.2-9.344 7.850667-17.28 13.909334-23.808 6.101333-6.528 13.482667-11.52 22.186666-15.018666 8.746667-3.456 18.688-5.205333 29.781334-5.205334 15.061333 0 27.989333 3.072 38.826666 9.173334 10.794667 6.101333 18.944 14.805333 24.490667 26.026666 5.546667 11.306667 8.362667 24.533333 8.362667 39.722667 0 23.04-6.272 41.386667-18.773334 54.826667z m-23.04-16.042667c4.053333-4.693333 7.082667-10.24 9.045334-16.64 1.92-6.4 2.901333-13.866667 2.901333-22.314667 0-10.666667-1.706667-19.882667-5.12-27.690666a38.485333 38.485333 0 0 0-14.762667-17.664 40.490667 40.490667 0 0 0-21.930666-5.973334 39.722667 39.722667 0 0 0-16.298667 3.285334 35.84 35.84 0 0 0-12.885333 9.685333c-3.626667 4.224-6.442667 9.6-8.533334 16.213333a73.216 73.216 0 0 0-3.114666 22.144c0 16.725333 3.882667 29.568 11.690666 38.613334a37.376 37.376 0 0 0 29.525334 13.525333 40.618667 40.618667 0 0 0 15.061333-3.072 77.098667 77.098667 0 0 0-11.648-6.954667 74.026667 74.026667 0 0 1-9.557333-5.333333 6.229333 6.229333 0 0 1-2.56-5.376c0-1.962667 0.810667-3.712 2.474666-5.248a7.893333 7.893333 0 0 1 5.461334-2.304c5.973333 0 16.085333 5.034667 30.208 15.104z"
          fill="#000000"/>
</svg>