<?xml version="1.0" standalone="no"?><!DOCTYPE svg PUBLIC "-//W3C//DTD SVG 1.1//EN" "http://www.w3.org/Graphics/SVG/1.1/DTD/svg11.dtd">
<svg class="icon" width="48px" height="48.00px" viewBox="0 0 1024 1024" version="1.1" xmlns="http://www.w3.org/2000/svg">
    <path d="M253.809778 0C217.059556 0 188.16 28.871111 188.16 64.341333v895.317334C188.16 995.128889 217.059556 1024 253.809778 1024H910.222222c36.750222 0 65.649778-28.871111 65.649778-64.341333V204.8l-204.8-204.8H253.809778z" fill="#ECEDEF"/>
    <path d="M818.346667 909.255111c0 18.375111-14.449778 32.824889-31.516445 32.824889H88.405333c-17.066667 0-31.516444-14.449778-31.516444-32.824889V581.063111c0-18.375111 14.449778-32.824889 31.516444-32.824889h698.424889c17.066667 0 31.488 14.449778 31.488 32.824889v328.192z" fill="#374C9D"/>
    <path d="M290.816 285.44H873.244444V237.425778H290.816zM290.816 378.225778H873.244444V330.24H290.816zM290.816 471.04H873.244444v-47.985778H290.816z" fill="#BBBBBB" fill-opacity=".4"/>
    <path d="M282.624 836.551111c-13.539556 0-25.258667-1.877333-35.157333-5.632a65.621333 65.621333 0 0 1-24.462223-15.616 61.127111 61.127111 0 0 1-14.108444-23.694222 95.061333 95.061333 0 0 1-4.494222-29.895111v-33.848889c0-10.524444 1.479111-20.394667 4.494222-29.553778 3.015111-9.130667 7.708444-17.038222 14.108444-23.694222 6.4-6.627556 14.506667-11.889778 24.263112-15.786667 9.784889-3.896889 21.447111-5.831111 34.986666-5.831111 8.533333 0 16.298667 0.824889 23.324445 2.446222 7.025778 1.621333 13.084444 3.754667 18.232889 6.4 5.148444 2.616889 9.102222 5.575111 11.861333 8.817778 2.759111 3.271111 4.124444 6.542222 4.124444 9.784889 0 3.754667-1.422222 7.907556-4.323555 12.430222-2.872889 4.494222-6.712889 6.769778-11.463111 6.769778a11.235556 11.235556 0 0 1-6.030223-1.877333 76.686222 76.686222 0 0 0-17.664-7.907556 51.171556 51.171556 0 0 0-15.075555-1.877333c-14.279111 0-24.746667 3.498667-31.374222 10.524444-6.656 7.025778-9.955556 16.782222-9.955556 29.354667v33.848889c0 12.515556 3.299556 22.328889 9.955556 29.326222 6.627556 7.025778 17.208889 10.524444 31.772444 10.524444 6.257778 0 11.406222-0.597333 15.416889-1.877333 4.010667-1.251556 7.452444-2.673778 10.353778-4.323555 2.872889-1.621333 5.319111-3.072 7.338666-4.323556a11.889778 11.889778 0 0 1 6.4-1.877333c5.262222 0 9.386667 2.133333 12.401778 6.4a21.617778 21.617778 0 0 1 4.522667 12.401777c0 3.271111-1.507556 6.599111-4.522667 9.955556a43.121778 43.121778 0 0 1-12.401778 9.244444 81.635556 81.635556 0 0 1-18.830222 6.769778 100.920889 100.920889 0 0 1-23.694222 2.616889M423.68 806.115556c6.257778 0 11.434667-0.568889 15.445333-1.706667 3.982222-1.137778 7.253333-2.645333 9.756445-4.551111a15.416889 15.416889 0 0 0 5.290666-6.542222 20.195556 20.195556 0 0 0 1.479112-7.537778c0-6.542222-2.247111-11.605333-6.769778-15.217778a54.243556 54.243556 0 0 0-16.725334-8.846222c-6.656-2.275556-13.937778-4.465778-21.816888-6.599111a98.702222 98.702222 0 0 1-21.816889-8.647111 51.484444 51.484444 0 0 1-16.753778-14.506667c-4.494222-5.973333-6.769778-14.279111-6.769778-24.803556 0-6.513778 1.137778-12.970667 3.413333-19.342222 2.247111-6.428444 5.859556-12.174222 10.894223-17.351111 5.006222-5.12 11.662222-9.329778 19.911111-12.572444 8.305778-3.271111 18.318222-4.892444 30.122666-4.892445 6.997333 0 13.909333 0.568889 20.679112 1.706667 6.769778 1.109333 12.8 2.759111 18.062222 4.864 5.262222 2.133333 9.528889 4.522667 12.8 7.168 3.242667 2.616889 4.864 5.432889 4.864 8.448a21.902222 21.902222 0 0 1-3.953778 11.662222 24.263111 24.263111 0 0 1-4.864 5.262222 9.699556 9.699556 0 0 1-6.229333 2.275556c-1.991111 0-4.266667-0.568889-6.769778-1.706667-2.503111-1.137778-5.404444-2.389333-8.647111-3.754667a89.770667 89.770667 0 0 0-11.093334-3.754666c-4.152889-1.137778-8.817778-1.706667-14.108444-1.706667-11.036444 0-18.887111 2.446222-23.495111 7.338667-4.664889 4.892444-6.968889 9.728-6.968889 14.506666 0 5.489778 2.275556 9.671111 6.769778 12.572445 4.522667 2.901333 10.154667 5.404444 16.924444 7.509333 6.769778 2.161778 14.108444 4.266667 22.016 6.4 7.907556 2.133333 15.217778 5.233778 21.987556 9.216 6.769778 4.039111 12.430222 9.415111 16.952889 16.184889 4.494222 6.769778 6.769778 15.786667 6.769777 27.079111 0 16.071111-5.717333 28.785778-17.123555 38.200889-11.406222 9.386667-27.790222 14.08-49.095111 14.08-9.272889 0-17.863111-0.853333-25.770667-2.616889a88.462222 88.462222 0 0 1-20.48-6.968889 44.657778 44.657778 0 0 1-13.568-9.784889c-3.242667-3.612444-4.892444-7.196444-4.892444-10.723555a22.471111 22.471111 0 0 1 3.783111-11.463111c2.503111-4.152889 5.745778-6.200889 9.784889-6.200889 2.503111 0 5.006222 0.853333 7.509333 2.645333 2.503111 1.735111 5.518222 3.754667 9.016889 6.001778 3.527111 2.275556 7.964444 4.266667 13.368889 6.030222 5.404444 1.763556 12.088889 2.616889 20.110222 2.616889M507.192889 677.063111a10.865778 10.865778 0 0 1-1.308445-3.015111 11.975111 11.975111 0 0 1-0.568888-3.384889c0-2.247111 0.853333-4.437333 2.645333-6.570667a24.462222 24.462222 0 0 1 6.4-5.461333 35.299556 35.299556 0 0 1 16.924444-4.892444c2.730667 0 5.176889 0.512 7.310223 1.507555 2.133333 1.024 3.697778 2.901333 4.721777 5.660445l44.771556 118.840889 44.743111-118.101334c1.763556-5.262222 5.774222-7.907556 12.032-7.907555a28.16 28.16 0 0 1 7.537778 1.308444c3.015111 0.910222 5.888 2.076444 8.647111 3.584a25.315556 25.315556 0 0 1 6.940444 5.461333c1.905778 2.133333 2.844444 4.323556 2.844445 6.570667a17.891556 17.891556 0 0 1-1.507556 6.4l-63.203555 152.348445a11.576889 11.576889 0 0 1-6.940445 6.030222 31.857778 31.857778 0 0 1-11.093333 1.877333c-4.266667 0-8.049778-0.625778-11.292445-1.877333a11.548444 11.548444 0 0 1-6.769777-6.030222l-62.833778-152.348445z"
          fill="#FFFFFF"/>
    <path d="M822.272 204.8h153.6l-204.8-204.8v153.6c0 28.672 22.528 51.2 51.2 51.2" fill="#BBBBBB"/>
</svg>