<?xml version="1.0" standalone="no"?><!DOCTYPE svg PUBLIC "-//W3C//DTD SVG 1.1//EN" "http://www.w3.org/Graphics/SVG/1.1/DTD/svg11.dtd">
<svg class="icon" width="48px" height="48.00px" viewBox="0 0 1024 1024" version="1.1" xmlns="http://www.w3.org/2000/svg">
    <path d="M32 512c0 44.288 6.208 87.04 16.768 128H672a128 128 0 0 0 0-256H48.768A511.488 511.488 0 0 0 32 512" fill="#343741"/>
    <path d="M893.568 245.184A488.928 488.928 0 0 0 943.36 192C849.504 75.04 705.6 0 544 0 341.728 0 167.648 117.696 84.608 288H784.32a161.12 161.12 0 0 0 109.216-42.816" fill="#FEC514"/>
    <path d="M784.32 736H84.64C167.68 906.304 341.728 1024 544 1024c161.6 0 305.504-75.072 399.36-192a486.304 486.304 0 0 0-49.792-53.184A160.96 160.96 0 0 0 784.32 736" fill="#00BFB3"/>
</svg>