<?xml version="1.0" standalone="no"?><!DOCTYPE svg PUBLIC "-//W3C//DTD SVG 1.1//EN" "http://www.w3.org/Graphics/SVG/1.1/DTD/svg11.dtd">
<svg class="icon" width="48px" height="48.00px" viewBox="0 0 1024 1024" version="1.1" xmlns="http://www.w3.org/2000/svg">
    <path fill="#008000"
          d="M911.947453 336.658514h-163.070086v101.176438h163.070086z m0 128.796031h-163.070086v101.176438h163.070086z m0-257.592062h-163.070086v101.176438h163.070086z m0 510.533157h-163.070086v101.247991h163.070086z m74.916358-611.709594H594.823003a33.486968 33.486968 0 0 0-13.23737 2.719027V0L0 115.844875v790.449863l581.585633 115.844875v-103.895465a33.486968 33.486968 0 0 0 13.23737 2.719027h392.040808a35.776675 35.776675 0 0 0 35.275802-36.849975V143.464468a35.776675 35.776675 0 0 0-35.275802-36.778422zM392.112361 681.760324l-70.122283-4.650968-53.16414-133.446998-57.24268 124.28817-66.115296-4.579415L228.970722 511.46335 154.269024 345.817343l66.043742-4.579414L264.747397 465.454545h8.729509L321.990078 332.007547l70.48005-4.579415-88.511495 174.804836L392.112361 681.688771z m585.950388 193.194047H581.51408v-55.167634h132.159039V718.39564H581.51408v-22.897072h132.159039V594.32213H581.51408V566.702537h132.159039V465.454545H581.51408v-27.619593h132.159039V336.586961H581.51408v-27.54804h132.159039V207.862483H581.51408v-55.167633h396.548669z m-66.115296-280.632241h-163.070086v101.104884h163.070086z"/>
</svg>