<?xml version="1.0" standalone="no"?><!DOCTYPE svg PUBLIC "-//W3C//DTD SVG 1.1//EN" "http://www.w3.org/Graphics/SVG/1.1/DTD/svg11.dtd">
<svg class="icon" width="48px" height="48.00px" viewBox="0 0 1024 1024" version="1.1" xmlns="http://www.w3.org/2000/svg">
    <path d="M386.302848 819.2a76.8 76.8 0 1 1-76.8 76.8 76.8 76.8 0 0 1 76.8-76.8m0-51.2a128 128 0 1 0 128 128 128 128 0 0 0-128-128zM386.302848 51.2a76.8 76.8 0 1 1-76.8 76.8 76.8 76.8 0 0 1 76.8-76.8m0-51.2a128 128 0 1 0 128 128 128 128 0 0 0-128-128z" fill="#3B4153"/>
    <path d="M411.646848 204.8h-51.2v153.6h51.2V204.8zM719.102848 243.2a76.8 76.8 0 0 1 66.56 38.4 76.8 76.8 0 0 1-66.56 115.2 76.8 76.8 0 0 1-66.56-38.4A76.8 76.8 0 0 1 719.102848 243.2m0-51.2a128 128 0 1 0 110.336 64A128 128 0 0 0 719.102848 192z" fill="#3B4153"/>
    <path d="M639.230848 336.128l-132.864 76.8 25.6 44.544 132.864-76.8-25.6-44.544zM719.102848 627.2a76.8 76.8 0 1 1-66.56 38.4 76.8 76.8 0 0 1 66.56-38.4m0-51.2a128 128 0 1 0 64 17.152 128 128 0 0 0-64-17.152z" fill="#3B4153"/>
    <path d="M531.966848 566.528l-25.6 44.544 132.864 76.8 25.6-44.544-132.864-76.8zM411.646848 665.6h-51.2v153.6h51.2v-153.6z" fill="#3B4153"/>
    <path d="M386.348107 511.924792m-102.4 177.362002a204.8 204.8 0 1 0 204.8-354.724005 204.8 204.8 0 1 0-204.8 354.724005Z" fill="#4BB496"/>
    <path d="M386.302848 358.4a153.6 153.6 0 1 1-133.12 76.8A153.6 153.6 0 0 1 386.302848 358.4m0-51.2a204.8 204.8 0 1 0 102.4 27.392A204.8 204.8 0 0 0 386.302848 307.2z" fill="#3B4153"/>
</svg>