<?xml version="1.0" standalone="no"?><!DOCTYPE svg PUBLIC "-//W3C//DTD SVG 1.1//EN" "http://www.w3.org/Graphics/SVG/1.1/DTD/svg11.dtd">
<svg class="icon" width="48px" height="48.00px" viewBox="0 0 1024 1024" version="1.1" xmlns="http://www.w3.org/2000/svg">
    <path fill="#008000"
          d="M485.4016 771.3792a244.3264 244.3264 0 0 1-176.8448-75.8784L140.544 521.7024a14.0544 14.0544 0 0 1 0-19.3536l168.0128-173.7728a247.552 247.552 0 0 1 176.8704-75.8272 247.6288 247.6288 0 0 1 176.896 75.8528 265.9584 265.9584 0 0 1 0 367.0528 244.608 244.608 0 0 1-176.9216 75.7248z m9.5488-471.9872a204.1088 204.1088 0 0 0-145.92 62.4896l-123.4176 127.6928a32.4352 32.4352 0 0 0 0 45.0304l123.5712 127.7952a201.5488 201.5488 0 0 0 145.92 62.4896 199.68 199.68 0 0 0 79.0016-16.2816 203.6736 203.6736 0 0 0 66.8416-46.208 214.656 214.656 0 0 0 60.1856-150.2976 214.7584 214.7584 0 0 0-60.3392-150.2208l-3.8144-3.9168h-0.128a204.6464 204.6464 0 0 0-141.9264-58.5728z m1.5872 337.92a120.5248 120.5248 0 0 1-117.2736-123.264 120.4736 120.4736 0 0 1 117.2736-123.1872 120.32 120.32 0 0 1 117.1712 123.1872 120.4736 120.4736 0 0 1-117.1968 123.2384z m327.2192-51.7888a437.76 437.76 0 0 0 0-142.7968l59.6736 61.7984a14.0288 14.0288 0 0 1 0 19.3024l-59.648 61.7216z"/>
</svg>