<?xml version="1.0" standalone="no"?><!DOCTYPE svg PUBLIC "-//W3C//DTD SVG 1.1//EN" "http://www.w3.org/Graphics/SVG/1.1/DTD/svg11.dtd"><svg class="icon" width="48px" height="48.00px" viewBox="0 0 1024 1024" version="1.1" xmlns="http://www.w3.org/2000/svg"><path d="M726.976 525.248c8.96-3.712 19.2-3.104 27.648 1.664l173.344 98.24 0.032 93.408c0 29.6-15.936 56.96-41.76 71.808l-332.48 190.528a84.064 84.064 0 0 1-83.52 0l-159.68-91.52 392.064-246.528c12.096-7.616 19.424-20.832 19.424-35.04v-54.976c0-7.84-2.24-15.328-6.176-21.76l8.16-4.416 2.944-1.408zM96 454.304l147.84 83.808 3.424 1.76a52.544 52.544 0 0 0 47.52-1.312l8-4.352c1.792 1.44 3.712 2.752 5.696 3.904l123.392 69.632a41.216 41.216 0 0 1 13.184 60.32l-153.248 210.56L137.76 790.4A82.816 82.816 0 0 1 96 718.56v-264.256zM719.744 170.24L886.176 265.6A82.816 82.816 0 0 1 928 337.44v263.84l-163.04-92.352-3.424-1.792a52.544 52.544 0 0 0-47.488 1.344l-14.208 7.68-128.864-68.608a41.216 41.216 0 0 1-13.728-61.376l162.528-215.936z m-165.952-95.136l150.08 86.016-2.72 0.896-394.496 250.56c-12 7.616-19.264 20.768-19.264 34.88v54.624c0 5.28 1.024 10.464 2.944 15.232l-5.568 3.072-2.912 1.376a31.52 31.52 0 0 1-27.648-1.664l-158.176-89.632v-93.024c0-29.6 15.904-56.96 41.76-71.808l332.48-190.528a84.064 84.064 0 0 1 83.52 0z" fill="#215B71" /><path d="M553.792 75.104l150.08 86.016-2.72 0.896-394.496 250.56c-12 7.616-19.264 20.768-19.264 34.88v54.624c0 5.28 1.024 10.464 2.944 15.232l-5.568 3.072-2.912 1.376a31.552 31.552 0 0 1-24.768-0.192l-2.88-1.472-158.176-89.632v-93.024c0-29.6 15.904-56.96 41.76-71.808l332.48-190.528a84.064 84.064 0 0 1 83.52 0z" fill="#FABF01" /><path d="M107.168 296.128l198.848 116.864-2.24 1.6a41.344 41.344 0 0 0-16.384 32.896v54.592c0 5.28 1.024 10.464 2.944 15.232l-5.568 3.072-2.912 1.376a31.552 31.552 0 0 1-24.768-0.192l-2.88-1.472-158.176-89.632v-93.024c0-14.72 3.968-28.96 11.136-41.312z" fill="#FCCC4C" /><path d="M512 762.688v229.28c-14.4 0-28.832-3.712-41.76-11.104l-159.68-91.52L512 762.688zM96 454.304l147.84 83.808 3.424 1.76c13.824 6.528 29.824 6.72 43.776 0.512l3.744-1.856 8-4.32c1.792 1.472 3.712 2.752 5.696 3.904l123.392 69.632a41.216 41.216 0 0 1 13.184 60.32l-153.248 210.56L137.76 790.4A82.816 82.816 0 0 1 96 718.56v-264.256zM719.744 170.24L886.176 265.6a83.2 83.2 0 0 1 31.552 32.064l-295.232 177.344-51.584-27.488a41.216 41.216 0 0 1-13.696-61.376l162.528-215.936z" fill="#318492" /></svg>