<?xml version="1.0" standalone="no"?><!DOCTYPE svg PUBLIC "-//W3C//DTD SVG 1.1//EN" "http://www.w3.org/Graphics/SVG/1.1/DTD/svg11.dtd"><svg class="icon" width="48px" height="48.00px" viewBox="0 0 1024 1024" version="1.1" xmlns="http://www.w3.org/2000/svg"><path fill="#008000" d="M512 42.666667C252.8 42.666667 42.666667 252.8 42.666667 512s210.133333 469.333333 469.333333 469.333333 469.333333-210.133333 469.333333-469.333333S771.2 42.666667 512 42.666667z m216.874667 406.485333a99.84 99.84 0 0 1-6.784 17.365333h0.128l-0.426667 0.682667c-19.669333 42.112-71.125333 124.757333-71.125333 124.757333l-0.213334-0.554666-15.018666 26.197333h72.405333l-138.325333 183.808 31.445333-125.013333h-57.002667l19.797334-82.730667c-16 3.84-34.986667 9.130667-57.386667 16.384 0 0-30.293333 17.706667-87.381333-34.133333 0 0-38.485333-33.92-16.128-42.368 9.472-3.626667 46.037333-8.234667 74.794666-12.074667 38.912-5.248 62.805333-8.064 62.805334-8.064s-119.893333 1.792-148.309334-2.688c-28.458667-4.437333-64.512-51.925333-72.234666-93.610667 0 0-11.861333-22.869333 25.6-12.074666 37.418667 10.88 192.426667 42.24 192.426666 42.24s-201.557333-61.781333-215.04-76.885334c-13.397333-15.018667-39.424-82.261333-36.053333-123.562666 0 0 1.450667-10.282667 12.074667-7.466667 0 0 148.992 68.010667 250.88 105.301333 101.930667 37.290667 190.506667 56.234667 179.072 104.490667z"  /></svg>