<?xml version="1.0" standalone="no"?><!DOCTYPE svg PUBLIC "-//W3C//DTD SVG 1.1//EN" "http://www.w3.org/Graphics/SVG/1.1/DTD/svg11.dtd"><svg class="icon" width="48px" height="48.00px" viewBox="0 0 1024 1024" version="1.1" xmlns="http://www.w3.org/2000/svg"><path d="M596.48 186.453333l-102.4-102.442666A140.629333 140.629333 0 0 0 394.538667 42.666667a130.858667 130.858667 0 0 0-91.392 36.778666 134.058667 134.058667 0 0 0-1.834667 191.146667l185.856 185.813333a21.248 21.248 0 0 0 29.184 0l79.957333-80c5.034667-5.973333 88.704-101.546667 0.128-189.994666z" fill="#15A9CA" /><path d="M764.373333 350.037333c-19.498667-18.858667-39.765333-38.4-58.026666-59.477333v-0.725333a36.821333 36.821333 0 0 0-1.450667 5.888 210.517333 210.517333 0 0 1-62.72 117.248 88582.4 88582.4 0 0 0-322.304 322.346666l-14.250667 14.08a136.661333 136.661333 0 0 0-41.813333 75.562667 146.218667 146.218667 0 0 0 37.546667 114.816 122.666667 122.666667 0 0 0 96.512 41.472c42.069333 0.597333 62.549333-4.906667 93.226666-34.730667 122.666667-120.064 245.333333-241.109333 338.176-333.141333 43.776-43.52 53.845333-115.626667 22.784-164.224a563.2 563.2 0 0 0-87.68-99.114667z" fill="#52CAA3" /><path d="M170.666667 285.866667v452.394666a25.130667 25.130667 0 0 0 42.922666 17.792l227.669334-227.669333a23.168 23.168 0 0 0 0-32.597333L213.589333 268.117333a24.533333 24.533333 0 0 0-17.493333-7.381333 25.386667 25.386667 0 0 0-25.429333 25.173333z" fill="#5268AD" /></svg>