<?xml version="1.0" standalone="no"?><!DOCTYPE svg PUBLIC "-//W3C//DTD SVG 1.1//EN" "http://www.w3.org/Graphics/SVG/1.1/DTD/svg11.dtd"><svg class="icon" width="48px" height="48.00px" viewBox="0 0 1024 1024" version="1.1" xmlns="http://www.w3.org/2000/svg"><path fill="#008000" d="M344.3968 860.9024l-8.3456-56.32-57.856 7.9104 9.216 57.856 56.9856-9.472zM794.3424 700.5952l-9.216-57.1904-251.5712 38.7328 8.3456 56.96 252.4416-38.5024zM452.48 752.9216l56.9856-8.5504-8.3456-56.96-57.856 9.216 9.216 56.32zM434.688 847.4112l-9.2416-57.216-56.9856 9.216 8.3456 57.216 57.856-9.216zM264.8832 723.84l8.5504 56.96 57.216-8.32-8.576-57.856-57.1904 9.216zM546.6112 771.4304l9.2416 57.856 252.2112-39.3984-9.216-56.2944-252.2368 37.8368zM466.432 842.4192l56.9856-8.3456-9.216-57.856-56.32 9.216 8.5504 56.9856zM354.5088 709.9648l9.216 57.856 56.32-9.216-8.576-57.216-56.9856 8.576zM284.2624 688.2816L213.9904 229.9904 189.44 234.752l70.9376 456.704 23.8848-3.1488zM317.3888 682.112L241.92 191.4112l-24.7808 4.48 76.3392 490.7264 23.8848-4.5056zM374.528 674.2528L294.4 153.6l-24.7808 3.84 79.488 519.9616 25.4464-3.1488zM406.9632 668.8768L333.568 194.6112l-23.8848 3.84 73.4208 474.4704 23.8592-4.0704zM463.2576 660.608L398.4128 238.592l-23.8848 3.84 63.9488 422.016 24.7808-3.84zM496.4096 655.1552L428.6464 217.6l-23.8848 3.84 67.7888 436.6336 23.8592-2.9184z"  /></svg>