<?xml version="1.0" standalone="no"?><!DOCTYPE svg PUBLIC "-//W3C//DTD SVG 1.1//EN" "http://www.w3.org/Graphics/SVG/1.1/DTD/svg11.dtd"><svg class="icon" width="48px" height="48.00px" viewBox="0 0 1024 1024" version="1.1" xmlns="http://www.w3.org/2000/svg"><path fill="#008000" d="M528.06944 144c163.168 0 297.792 122.112 317.504 279.936A240 240 0 0 1 800.06944 895.456V896H224.06944v-0.512a240 240 0 0 1-12.672-477.792C233.79744 262.912 367.07744 144 528.06944 144z m-69.76 405.632c-28.16 0-50.176 8.96-66.048 27.392-15.36 17.408-22.784 39.936-22.784 67.84 0 27.648 7.424 50.176 22.784 67.584 15.872 17.92 37.888 27.136 66.048 27.136 18.432 0 34.56-4.096 47.872-11.776 6.656 8.704 13.312 18.176 20.224 28.16l19.456-16.896a646.88 646.88 0 0 0-20.224-27.648c14.336-16.896 21.76-39.168 21.76-66.56 0-28.16-7.68-50.944-23.04-68.096-16.128-18.176-38.144-27.136-66.048-27.136z m-277.248 3.584H145.98944V736h29.952v-125.952h1.024L230.72544 736h25.856l53.76-125.952h1.024V736h29.952v-182.784H306.24544l-61.952 143.36H243.26944l-62.208-143.36z m530.176 0h-149.76v25.6h59.904V736h29.952v-157.184h59.904v-25.6z m157.44 0h-149.76v25.6h59.904V736h29.952v-157.184h59.904v-25.6zM458.30944 576c18.944 0 33.536 5.888 43.776 18.176 9.984 12.288 15.104 29.184 15.104 50.688 0 17.664-3.584 32.256-10.24 43.52-8.704-10.24-17.664-20.224-26.624-29.696l-17.408 16.896c8.448 8.96 17.152 18.944 26.368 30.208a62.304 62.304 0 0 1-30.976 7.424c-18.944 0-33.792-6.4-44.032-18.944-9.984-12.288-14.848-28.672-14.848-49.408 0-20.992 4.864-37.376 14.848-49.664 10.496-12.8 25.088-19.2 44.032-19.2z"  /></svg>