<?xml version="1.0" standalone="no"?><!DOCTYPE svg PUBLIC "-//W3C//DTD SVG 1.1//EN" "http://www.w3.org/Graphics/SVG/1.1/DTD/svg11.dtd"><svg t="1767882564292" class="icon" viewBox="0 0 1024 1024" version="1.1" xmlns="http://www.w3.org/2000/svg" p-id="2888" xmlns:xlink="http://www.w3.org/1999/xlink" width="48" height="48"><path d="M414.208 681.301333v-60.970666l-169.386667 48s12.544-72.661333 100.864-97.749334a147.2 147.2 0 0 1 68.48-3.882666v-250.026667h84.821334a512 512 0 0 0-25.642667-65.749333c-12.416-25.216-25.130667-8.533333-54.016 15.658666-20.352 16.981333-71.765333 53.248-149.12 74.112s-139.861333 15.317333-165.973333 10.794667c-36.992-6.4-56.362667-14.549333-54.528 13.653333 1.578667 24.746667 7.466667 63.274667 20.992 114.048 29.354667 110.08 126.165333 322.133333 309.12 272.853334 47.786667-12.885333 81.493333-38.314667 104.917333-70.826667H414.208z m-273.237333-200.576l130.005333-34.261333s-3.84 50.048-52.565333 62.890667-77.482667-28.629333-77.482667-28.629334z" fill="#EF5350" p-id="2889"></path><path d="M903.594667 319.573333c-33.792 5.973333-114.944 13.312-215.125334-13.568-100.266667-26.88-166.741333-73.770667-193.109333-95.829333-37.376-31.274667-53.76-53.077333-69.973333-20.181333-14.293333 29.013333-32.554667 76.202667-50.261334 142.378666-38.314667 143.104-66.986667 445.098667 170.026667 508.629334s363.178667-212.394667 401.493333-355.541334c17.749333-66.048 25.472-116.053333 27.605334-148.352 2.474667-36.565333-22.613333-25.941333-70.656-17.493333z m-476.245334 118.442667s37.333333-58.154667 100.693334-40.106667c63.402667 18.005333 68.266667 88.106667 68.266666 88.106667z m154.624 260.693333c-111.402667-32.64-128.597333-121.514667-128.597333-121.514666l299.349333 83.712s-60.416 69.973333-170.752 37.802666m105.898667-182.613333s37.290667-58.112 100.608-40.021333 68.352 88.106667 68.352 88.106666z" fill="#4CAF50" p-id="2890"></path></svg>