<?xml version="1.0" standalone="no"?><!DOCTYPE svg PUBLIC "-//W3C//DTD SVG 1.1//EN" "http://www.w3.org/Graphics/SVG/1.1/DTD/svg11.dtd"><svg class="icon" width="48px" height="42.52px" viewBox="0 0 1156 1024" version="1.1" xmlns="http://www.w3.org/2000/svg"><path d="M796.416267 184.16123h-11.716724l-0.417308-99.094599c0-23.49765-17.173829-41.795001-37.718223-41.795001l-338.276285 2.343344h-2.953257l-19.260369-23.016141a42.629617 42.629617 0 0 0-13.931667-11.074712 38.360235 38.360235 0 0 0-16.69232-3.980476L42.75802 7.094236C31.715408 7.062135 21.122205 11.97353 13.257554 20.672796 5.457105 29.372063 0.963018 41.21719 0.834616 53.608028L0 793.848218c0 12.679743 4.17308 24.428568 12.166133 33.38464 7.928852 8.763468 18.618357 13.803265 29.757271 14.06007l754.107656 0.963018c23.048242 0 41.923404-20.672796 41.923404-46.995301L838.371772 231.124431c0-25.808895-18.875162-46.481691-41.923404-46.963201z m-86.735862-56.36868l0.417308 56.36868-190.741857-0.481509-45.261868-54.474744 235.586417-1.412427z m44.427251 620.954303l-670.260849-0.963018 4.590388-647.212607 248.587166 0.449409 133.281755 161.594497c7.960953 9.37338 18.875162 15.023088 30.623987 15.023088l254.012169 0.449409-0.834616 470.659222z" fill="#363636" /><path d="M178.094214 515.311178m64.201231 0l817.024862 0q64.201231 0 64.201231 64.201231l0 344.311201q0 64.201231-64.201231 64.20123l-817.024862 0q-64.201231 0-64.201231-64.20123l0-344.311201q0-64.201231 64.201231-64.201231Z" fill="#D92D20" /><path d="M428.446913 734.205275a28.858453 28.858453 0 0 0-11.748825-21.443211c-6.901632-5.071897-16.307113-7.639946-28.15224-7.639947-8.025154 0-14.862585 1.155622-20.415991 3.434766a28.730051 28.730051 0 0 0-12.743944 9.244977 22.213626 22.213626 0 0 0-4.333583 13.450158 19.228269 19.228269 0 0 0 2.600149 10.914209 27.381825 27.381825 0 0 0 8.121456 8.121456c3.402665 2.182842 7.383142 4.140979 11.845127 5.778111 4.494086 1.605031 9.277078 2.985357 14.348975 4.140979l20.993803 5.007696c10.175895 2.279144 19.517174 5.328702 28.023837 9.116575 8.506663 3.787873 15.889805 8.474562 22.149425 14.027969 6.195419 5.553406 11.042612 12.069831 14.445276 19.581375 3.531068 7.543645 5.296602 16.17871 5.360803 25.905197-0.064201 14.284774-3.723671 26.643511-10.914209 37.140412-7.158437 10.4327-17.494835 18.522055-31.041295 24.300166-13.450158 5.681809-29.660969 8.538764-48.664533 8.538763-18.843061 0-35.246476-2.889055-49.242344-8.667166a72.097982 72.097982 0 0 1-32.614225-25.648392c-7.736248-11.395718-11.813026-25.487889-12.198234-42.27651h47.765716c0.54571 7.83255 2.792754 14.348975 6.741129 19.581375 4.012577 5.2003 9.37338 9.116575 16.050308 11.748826 6.77323 2.568049 14.413176 3.884174 22.919839 3.884174 8.34616 0 15.633-1.219823 21.764217-3.65947a33.38464 33.38464 0 0 0 14.509478-10.143795 23.433449 23.433449 0 0 0 5.136099-14.926786c0-5.2324-1.605031-9.630185-4.68669-13.225453a35.439079 35.439079 0 0 0-13.482258-9.116575 136.491817 136.491817 0 0 0-21.507413-6.837431l-25.423687-6.388023c-19.709778-4.782992-35.246476-12.262435-46.642194-22.47043-11.395718-10.175895-17.045427-23.882858-16.981226-41.120889-0.064201-14.124271 3.691571-26.483008 11.299417-37.04411 7.672047-10.593203 18.201049-18.810961 31.554905-24.749574 13.385957-5.938614 28.569548-8.89187 45.582874-8.891871 17.334332 0 32.485823 2.953257 45.39027 8.891871 13.000749 5.938614 23.112443 14.188472 30.335081 24.717474 7.222638 10.593203 10.914209 22.791437 11.171014 36.723104h-47.316307z m83.686305 166.313288V667.050787h154.596563v40.703581h-105.225817v55.630366h94.95362v40.70358h-94.95362v96.430249h-49.370746z m178.896729-192.764195V667.050787H882.766923v40.703581h-71.488071v192.764195h-48.792935v-192.764195h-71.45597z m223.323981 192.764195V667.050787h92.096666c17.71954 0 32.774728 3.402665 45.261867 10.143795 12.455039 6.709029 21.956821 16.018207 28.505347 27.927535 6.580626 11.877228 9.88699 25.55209 9.886989 41.056687 0 15.504597-3.338464 29.179459-10.015392 41.024587-6.676928 11.877228-16.371314 21.090104-29.051057 27.702831-12.615542 6.612727-27.927535 9.951191-45.839678 9.95119h-58.712026v-39.580058h50.718972c9.501782 0 17.334332-1.637131 23.497651-4.911394 6.227519-3.338464 10.850008-7.928852 13.899566-13.803265 3.11376-5.906513 4.68669-12.711844 4.68669-20.383891 0-7.768349-1.57293-14.509478-4.68669-20.287589a31.233899 31.233899 0 0 0-13.899566-13.57856c-6.227519-3.274263-14.124271-4.879294-23.722355-4.879294h-33.288338v193.085202h-49.338646z" fill="#FFFFFF" /></svg>