<?xml version="1.0" standalone="no"?><!DOCTYPE svg PUBLIC "-//W3C//DTD SVG 1.1//EN" "http://www.w3.org/Graphics/SVG/1.1/DTD/svg11.dtd">
<svg class="icon" width="48px" height="48.00px" viewBox="0 0 1024 1024" version="1.1" xmlns="http://www.w3.org/2000/svg">
    <path d="M106.898549 705.121316c49.726107-43.499682 97.916931-88.534647 141.160733-138.516634 36.164442-41.751165 68.106855-86.743484 74.717101-143.29307 9.04111-76.849438-5.842604-147.941566-59.662799-207.263191-18.764569-20.598379-39.832062-39.149714-55.526065-62.605425-9.04111-13.519019-13.774899-27.464505-10.405806-43.670269 5.160256-6.82348 9.169051-1.023522 12.879318 1.620576 5.24555 3.710267 9.382284 8.827877 14.28666 12.921965 23.626298 20.811613 53.948135 23.967472 82.734689 31.132125 12.111676 2.942626 24.308646 5.202903 36.761496 6.567599a39.235007 39.235007 0 0 1 5.37349 1.194109c16.205764 4.222028 33.093876 4.904376 49.470227 8.230822 19.361623 3.113213 38.979127 4.136734 58.127516 8.52935 13.220492 3.66762 28.018913 0.767641 39.746769 10.107279 70.836247 12.111676 142.440135 20.896906 211.101398 43.286448 101.072791 32.965935 191.910362 82.734689 260.827505 166.450254 6.994067 8.529349 12.58079 18.338101 19.916031 29.127728-45.930547 6.610246-89.430229 12.026383-132.588737 19.191036-81.369993 13.604312-162.484106 29.085082-241.593822 52.881967-7.548474 8.316116-18.849862 6.994067-28.018913 11.088154-23.796885 6.780833-47.764357 12.879318-71.134774 21.195433-18.849862 6.397012-38.382072 10.74698-57.103995 17.783694-24.692467 7.249947-47.97759 18.338101-72.414176 26.270396-10.405806 3.2838-19.873384 8.955817-30.236544 12.45285-2.985272 1.279402-5.970545 2.729392-8.91317 4.179381-10.192573 5.544077-21.451314 8.65729-31.643886 14.15872-25.033641 12.282263-50.237868 24.180706-74.034753 38.723247a210.845518 210.845518 0 0 0-32.624762 17.741047c-7.377887 4.008794-15.011655 7.377887-22.261602 11.514621-25.460108 10.661687-47.97759 27.592445-75.058275 34.543865-2.899979-0.810288-5.032316-2.047044-3.838207-5.544077z"
          fill="#B61C1C"/>
    <path d="M353.396748 587.07512l28.786554-12.751377c13.433725 27.549799 25.545402 55.909885 50.536395 76.380324 7.719061-25.843929 12.154323-52.754026 16.504291-79.621477 1.322049-8.145529 2.047044-16.546938 7.932295-23.114537 18.039574-8.65729 37.145317-14.073427 56.592234-18.551335 28.146853 5.757311 52.284912 22.133662 80.644998 31.814474 0.469114-19.063096-5.629371-35.823268-8.78523-52.924614 9.083757-4.051441 18.508688-6.908773 28.573321-7.249947 11.344035 35.823268 15.480769 73.053878 17.57046 110.028608 7.463181 129.091703-18.508688 251.274634-79.57883 365.738503-24.735113 46.271721-24.095412 48.489351-76.508265 46.058487-111.947711-5.202903-221.720438-22.602776-324.157924-70.964187-30.961538-14.627834-59.662799-33.43505-82.521456-60.473088-40.087942-47.337889-29.170375-100.262502 0.255881-142.610722 8.060235-11.599915 17.911634-21.920428 26.995391-32.837995a36.249735 36.249735 0 0 1 14.627834-6.908773l74.759748-36.676203c1.83381 11.813149-8.65729 14.755774-15.182242 19.489564a396.017693 396.017693 0 0 0-69.727432 66.017164c-3.53968 4.136734-10.021986 9.04111-6.397012 15.139595 2.899979 4.904376 9.894045 2.132337 15.054302 2.473512 30.620364 1.96175 60.217207-5.544077 90.112576-10.23522 12.58079-2.047044 15.352829-6.908773 10.832274-19.446916-10.021986-27.635092-16.504291-55.995179-3.624973-84.867027 10.021986-7.07936 20.768966-12.879318 32.326234-17.058699 5.629371 14.371954-3.497033 27.379212-3.966148 41.367345-0.639701 18.082221 2.047044 34.970333 9.510225 53.22314 31.046832-42.22028 51.559917-87.255245 69.386258-133.654905 10.064632-6.397012 20.896906-11.088154 32.24094-14.499894 6.354365 6.567599 2.089691 13.433725 0.255881 19.958677-11.088154 39.021774-28.31744 75.399449-48.702585 110.369782-3.241153 5.544077-7.292594 10.74698-9.894046 19.318976 10.832274-1.70587 19.53221-6.183778 28.573321-9.510224a1019.85431 1019.85431 0 0 0 83.502331-35.3968c18.764569-8.955817 19.020449-9.936692 4.307321-23.882179-22.432189-21.323374-36.505616-47.934944-49.214346-75.484742a15.907237 15.907237 0 0 1-1.620576-8.65729z m-7.249947-420.923393c-13.561666 0.554408-26.440983-2.686745-39.107067-6.994067-18.807215-10.661687-28.232147-29.852723-41.026171-45.973193-14.244014-17.954281-24.9057-17.613107-37.443844 2.174984-2.558805 3.966147-3.113213 9.126404-7.548474 11.813149-10.36316-2.558805-11.088154-18.252808-23.882179-17.399873 16.163117-31.174772 45.717313-44.992318 75.65533-58.255457C324.055786 28.829201 378.515682 16.291057 432.67705 3.070566c18.423395-4.520555 20.555732-2.644098 20.85426 16.205764 0.980875 60.259854 13.817546 117.619728 42.987921 170.800222l-39.661475-6.098485c-0.511761-13.348432-4.776436-29.255668-13.007258-35.3968-12.19697-9.083757-19.020449 10.832274-29.767429 15.566063-6.311719 2.772039-11.983736 7.420534-17.6984 11.514621-16.888112-2.814685-34.245338-3.369093-50.451102-9.638165 9.638165-7.974942 21.408667-12.367557 31.643886-19.40427 9.680812-6.610246 20.299852-12.069029 31.260066-23.668944-35.951208-6.82348-69.727431-12.708731-105.93452-20.427792 10.576393 18.849862 25.332168 31.473299 36.079148 47.082009 3.41174 4.947023 10.661687 8.529349 7.164654 16.546938z"
          fill="#828282"/>
    <path d="M110.82205 709.13011a20.768966 20.768966 0 0 1-14.670481 6.908774 22.986597 22.986597 0 0 1 10.74698-10.917568l3.923501 3.966148z" fill="#C25E60"/>
    <path d="M942.646852 409.408772c-78.043547 10.405806-152.547414 23.19983-230.292434 40.087942 23.967472-29.340962 45.930547-55.014304 64.140707-83.459684 10.576393-16.461644 19.958678-33.69093 29.938017-50.536395 2.430865-4.136734 2.857332-11.258741 10.832274-6.652893 46.058487 26.35569 88.022886 57.828989 125.381436 100.518383z m-348.807744-41.068817a1055.549637 1055.549637 0 0 1 188.029508-62.989246c-8.78523 21.195433-20.896906 38.211485-32.624762 55.355478-17.868987 26.014516-37.699724 50.493749-58.852511 73.821519-3.752914 4.136734-6.82348 10.74698-13.774899 2.985272-23.455711-26.313043-51.431977-47.337889-82.777336-69.173023z m-240.44236 218.735165c9.851399 11.386681 13.774899 26.014516 21.23808 38.80854 11.471975 19.617504 26.014516 36.676202 42.561453 52.156972 3.2838 3.113213 10.960214 7.548474 2.132338 12.026383a941.640176 941.640176 0 0 1-140.819559 58.383396c4.349968-15.054302 12.794024-24.351293 18.551335-35.055626 21.024846-39.192361 41.452638-78.555308 49.129052-123.035865 2.388218-1.108815 4.776436-2.217631 7.249947-3.2838z m309.871264-126.063784c-60.131913 14.499894-116.596207 30.407131-177.666348 49.470227 7.847001-10.61904 12.794024-17.399873 17.868987-24.095413 21.877781-28.999788 42.092339-59.065745 60.899554-90.112576 2.985272-4.989669 4.605849-13.561666 14.116074-7.292594 30.364484 20.001324 58.681924 42.262926 84.781733 72.030356zM206.649291 661.02458c-1.364696 24.010119-4.520555 48.190824 3.752914 71.731828 0.426467 1.108815 0.469114 2.302924 0.554407 3.497034 0.639701 10.064632 15.694003 19.020449 6.439659 28.232146-6.098485 6.098485-18.636628 6.269072-28.44538 8.017589-31.473299 5.458784-63.117186 9.638165-95.18754 8.188175-10.661687-0.511761-12.623437-2.686745-6.397012-12.154323 23.583651-35.780621 55.952532-62.349544 89.81405-87.425831 3.326446-2.516158 7.249947-4.179381 8.358762-8.699937l21.11014-11.386681z m389.194214-321.59912c14.713128-31.899767 26.568923-60.259854 34.629158-89.899343 1.96175-7.249947 4.648495-8.955817 12.410204-7.07936 40.51441 9.467578 80.303825 20.896906 121.457935 40.045296-57.658402 15.608709-111.862418 32.667408-168.45465 56.933407z m-281.894998 265.433354c3.113213 14.499894-5.885251 25.886575-10.746981 38.040898-14.755774 36.846789-35.311507 70.623013-58.298103 104.484531-21.23808-34.458572-15.99253-68.83185-5.927898-103.418362 23.754238-15.438122 48.659938-28.573321 74.930335-39.107067z m143.16513-56.848114c-4.989669 36.676202-10.36316 73.181818-22.304249 111.094776-26.440983-24.52188-47.892297-49.29964-52.668733-84.739086 24.77776-9.424931 48.958466-20.598379 74.972982-26.35569z m-105.337466-275.284752c24.393939-22.688069 48.233471-40.045296 73.565639-55.440772 7.761708-4.776436 11.941089-4.264675 15.608709 4.819083 8.91317 21.792488 12.154323 44.352617 11.94109 67.765681 0 8.65729-3.966147 10.107279-11.173448 7.548474-28.402734-10.107279-57.658402-17.357226-89.984637-24.692466z m139.454863 41.751165c36.804143-25.204228 72.158296-46.612895 112.118298-65.462757-9.169051 34.714452-23.626298 64.737762-38.893833 94.505192-2.686745 5.202903-5.672017 4.222028-10.107279 2.004397-20.470439-10.320513-41.196758-20.299852-63.117186-31.046832z m-92.116974-111.393303c-24.64982 16.760172-46.229074 32.582115-65.377463 51.304036-5.714664 5.544077-9.169051 7.889648-13.902839-1.70587-13.476372-27.080684-32.837995-50.109928-58.08487-74.631807l137.322526 25.033641zM350.624709 390.81479a346.291586 346.291586 0 0 0-12.19697-93.183142c32.965935 3.838207 62.946599 13.90284 96.211062 23.882178l-84.014092 69.300964z m128.238769-99.708094c-0.383821-28.06156-3.966147-53.0952-14.499894-79.45089 39.320301 6.141132 78.597955 12.282263 117.918255 18.338101a1311.387473 1311.387473 0 0 0-103.418361 61.112789z m-19.958678 210.54699c-6.695539-16.035177-14.15872-30.02331-25.886576-41.111464-4.222028-4.008794-5.330843-6.695539 0.938229-10.4911 28.914495-17.357226 58.426044-33.56299 88.705234-48.446705 1.279402-0.639701 3.2838 0.213234 7.122007 0.554408a968.337039 968.337039 0 0 1-70.878894 99.494861zM338.427739 563.662056a1217.308749 1217.308749 0 0 0 64.140708-80.602352c5.544077-7.847001 9.680812-9.339638 15.352829-0.938228 3.966147 5.885251 8.529349 11.471975 11.685209 17.783693 10.874921 21.877781 9.169051 25.588048-13.561666 34.160045-25.929222 9.766105-51.730504 19.702797-77.61708 29.596842z m111.478597-153.187115c8.145529-21.963075 14.841068-42.177633 20.043971-62.776012 2.217631-8.614643 3.79556-12.623437 13.604313-7.676415 16.717525 8.358762 34.032104 15.566063 54.161368 24.692467-31.217419 16.248411-59.492212 31.046832-87.852298 45.75996zM221.021245 127.1726c-0.085293-18.679275 14.073427-25.843929 27.293918-33.904164 7.249947-4.435262 9.126404 2.217631 12.111676 6.013191 15.608709 19.916031 31.089479 39.917355 46.570248 59.91868-30.577718-5.458784-61.581903-9.808752-85.975842-32.027707z m364.501747 381.133978c14.969008 16.888112 9.894045 38.382072 17.058699 61.411316-32.837995-14.073427-62.00837-24.479233-88.875821-40.258529 23.327771-9.04111 47.337889-15.86459 71.817122-21.11014zM439.926997 357.806208c-6.866126 26.313043-20.129265 49.811401-33.264462 73.352405-2.729392 4.819082-5.714664 3.923501-10.149926 2.132337-37.529137-14.883715-37.614431-14.926361-7.548474-40.64235 15.523416-13.263138 31.558593-25.929222 47.423182-38.893833l3.53968 4.051441zM396.342022 175.747245c11.855796-18.252808 32.582115-25.588048 47.807003-41.537932 5.799958 14.841068 10.74698 27.976266 16.120471 40.940877 1.919104 4.520555 2.644098 7.804355-3.41174 8.91317L396.342022 175.704598z m-50.323162 335.075492a364.416454 364.416454 0 0 1-75.271508 73.352405c18.210161-31.302712 41.537932-57.487815 75.314155-73.352405z m33.093876-57.189288l-46.740835 31.686533 6.69554-19.361623c10.149926-29.89537 10.149926-29.89537 40.045295-12.367557z"
          fill="#FFFFFF"/>
    <path d="M262.090062 591.510382c-0.341174 6.141132-4.307321 7.676414-10.320513 9.808752 1.96175-6.098485 4.264675-9.254344 10.320513-9.808752z" fill="#C85555"/>
    <path d="M406.491948 853.361409c68.234795-29.682136 129.731405-62.946599 193.189764-98.428692a602.172069 602.172069 0 0 1-30.705658 120.690294c-2.601452 7.292594-7.036713 8.742583-13.476372 8.102882-49.470227-5.11761-98.300752-13.135198-149.007734-30.364484z m-250.421699 49.470227c26.867451-32.667408 50.962863-61.667196 74.717101-90.965512 14.841068-18.338101 14.329307-18.252808 31.85712-2.857332 21.11014 18.508688 46.996715 29.596842 73.352405 45.717313-57.999576 23.626298-115.060924 41.623225-179.969273 48.148177z m53.820195-109.260966c-13.391079 25.374815-32.752702 42.22028-48.233471 62.051017-10.917567 13.988133-23.668945 26.526277-35.737974 39.618828-3.582327 3.880854-6.908773 7.974942-13.433726 3.369093-26.014516-18.551335-42.092339-42.902628-44.608497-75.228862-0.597054-7.889648 1.57793-14.414601 11.258741-14.585188a650.917301 650.917301 0 0 0 130.754927-15.224888z m299.891925 113.440347c-65.889224 27.208625-133.910786 40.173236-206.410256 52.711379 13.860193-17.058699 25.588048-31.089479 36.889437-45.461432 9.126404-11.599915 18.508688-23.19983 26.270396-35.695327 4.947023-8.060235 9.723458-8.230822 17.485166-5.458784 39.021774 13.988133 78.853835 24.820407 120.135887 29.639489 1.492636 0.170587 2.729392 1.96175 5.62937 4.264675z m59.449566-164.573797c-57.402522 31.388006-110.156548 60.558381-168.753179 85.122907 5.714664-22.517482 18.679275-38.979127 25.246875-58.127516 6.098485-17.911634 14.116073-35.183566 19.916031-53.180494 3.41174-10.533747 7.974942-11.599915 16.674878-6.482305 31.558593 18.466041 66.059811 27.720386 106.915395 32.667408z m38.168838-131.522568c-1.57793 35.908561 2.985272 67.12598-2.985272 98.172812-1.108815 5.629371-2.089691 10.960214-9.424931 10.235219-39.320301-3.838207-78.256781-9.638165-116.980027-29.255668 43.457035-25.886575 85.805255-48.702585 129.39023-79.152363z m-192.166242 110.455075c-13.305785 41.751165-30.15125 76.636205-49.896694 110.199194-2.047044 3.454387-4.051441 5.50143-8.444056 3.41174-31.046832-14.670481-61.581903-30.108603-89.472876-56.293706a1175.813464 1175.813464 0 0 0 147.813626-57.359875z m44.352617-51.176097c10.74698-39.960002 17.058699-75.91121 22.261602-111.947711 1.279402-8.91317 3.752914-11.599915 12.367556-7.719061 30.748305 13.817546 61.62455 27.293918 94.334605 41.708519-40.940877 28.914495-83.161157 52.242265-128.963763 77.915607z m-119.538832 313.155064c70.452426-16.546938 140.904852-33.264463 211.229338-65.42011-11.599915 29.213022-24.52188 52.284912-38.126192 75.015628-4.179381 6.994067-11.386681 5.458784-17.741047 5.202903-47.337889-1.70587-94.547838-5.032316-141.246026-13.348431-4.691142-0.852935-9.424931-0.980875-14.116073-1.44999z m-13.092552-92.714028c-16.333704 18.679275-32.582115 37.443844-48.915818 56.080472-12.069029 13.817546-25.929222 18.423395-44.18203 11.429329-22.602776-8.65729-45.632019-15.821943-71.177421-29.298316 58.426044-7.292594 110.753602-22.176308 161.716465-41.793812l2.558804 3.582327z m108.408031-794.764779c-46.954069-5.927898-91.434626-15.566063-140.350444-25.502754 35.865914-14.798421 69.215671-23.711591 102.437486-32.837996 1.70587-0.511761 3.582327-0.426467 5.288197-0.852935 24.308646-5.927898 23.882178-5.885251 26.142456 18.508689 1.151462 12.836671 4.008794 25.502755 6.482305 40.684996zM346.104154 166.151727c-15.139595-23.626298-37.742371-41.665872-53.0952-69.599492l125.935844 24.010119c-23.285124 20.896906-45.418786 37.35855-73.053878 45.546726h0.213234z"
          fill="#FFFFFF"/>
</svg>