<?xml version="1.0" standalone="no"?><!DOCTYPE svg PUBLIC "-//W3C//DTD SVG 1.1//EN" "http://www.w3.org/Graphics/SVG/1.1/DTD/svg11.dtd"><svg class="icon" width="48px" height="48.00px" viewBox="0 0 1024 1024" version="1.1" xmlns="http://www.w3.org/2000/svg"><path fill="#008000" d="M1017.051429 55.881143L964.022857 2.852571a10.313143 10.313143 0 0 0-14.262857 0l-95.085714 95.085715A249.051429 249.051429 0 0 0 714.532571 55.222857c-64 0-128 24.356571-176.859428 73.216L410.258286 255.780571a10.020571 10.020571 0 0 0 0 14.116572l339.675428 339.602286c1.974857 1.974857 4.461714 2.925714 7.094857 2.925714 2.486857 0 5.12-1.024 7.094858-2.925714l127.414857-127.341715a250.221714 250.221714 0 0 0 30.354285-316.928l95.085715-95.085714a10.24 10.24 0 0 0 0-14.262857z m-423.497143 497.371428a10.020571 10.020571 0 0 0-14.116572 0L496.128 636.489143 383.268571 523.702857l83.382858-83.382857a10.020571 10.020571 0 0 0 0-14.116571l-45.494858-45.494858a10.020571 10.020571 0 0 0-14.116571 0l-83.382857 83.382858-53.76-53.76a9.801143 9.801143 0 0 0-7.094857-2.925715 10.605714 10.605714 0 0 0-7.168 2.925715L128.365714 537.6a250.221714 250.221714 0 0 0-30.354285 316.928l-95.085715 95.085714a10.020571 10.020571 0 0 0 0 14.116572l52.955429 53.028571a10.313143 10.313143 0 0 0 14.262857 0l95.085714-95.085714a249.051429 249.051429 0 0 0 140.141715 42.861714c64 0 128-24.429714 176.932571-73.289143l127.341714-127.341714a10.020571 10.020571 0 0 0 0-14.189714L555.885714 696.027429l83.382857-83.382858a10.020571 10.020571 0 0 0 0-14.116571l-45.714285-45.275429z"  /></svg>